<svg enable-background="new 0 0 500 304" height="304" viewBox="0 0 500 304" width="500" xmlns="http://www.w3.org/2000/svg"><path d="m153.1 208.3c.4-8.7.7-17.4 1.1-26 .2-4 1.8-8.1 0-12.2-3.3-7.7-6.7-15.5-10.4-23.6-1.3 8.5-2.5 16.6-.5 24.8 2.2 9 3.9 18.3 5.7 27.4.6 3.2 1.1 6.4 1.5 9.4 1.5.2 2.4.2 2.6.2z" fill="#f0222c"/><path d="m192.9 70.2c-2.4-1.6-4.3-2.9-6.3-4.3-1.9-1.4-3.8-3-5.8-4.3-3-1.9-6-3.7-9.2-5.3-1.2-.6-3.2-.8-4.1-.1s-1.2 2.6-1.2 4c0 3.8.3 7.7.5 11.6 0 .3-.2.7-.3 1-.9 3.4-.1 5 3.5 5.6 8.9 1.5 15.8-3.2 22.9-8.2z" fill="#b9b9b9"/><path d="m177.6 208.4c2-10.4 3.7-20.6 6-30.8 1.6-6.9 3.2-13.7 2.5-20.8-.4-3.4-.9-6.7-1.3-10.1-.9 1.2-1.2 2.3-1.7 3.3-2.6 6-5.3 12.1-7.9 18.1-1.4 3.1-1.7 6.3-1.4 9.9.8 8 1.2 16.2 1.6 24.3.1 2-.3 4-.4 6h2.6z" fill="#f0222c"/><path d="m136 70.1c5 4.3 10.5 7.1 16.6 8.3 2 .4 4.2.3 6.3 0 3.5-.6 4.3-2.1 3.5-5.4-.1-.6-.3-1.2-.3-1.8.1-4.2.4-8.4.4-12.8 0-2.3-1.9-3.5-4-2.6-2 .8-4 1.6-5.7 2.8-5.6 3.6-11 7.4-16.8 11.5z" fill="#b9b9b9"/><path d="m162.5 130.8s.1 0 0 0c.1-2.8.1-5.5.1-8.3 0-5.6-2.5-8.2-8.1-8.4-1.7-.1-2.7.4-2.5 2.4.3 2.5 0 5 .6 7.4 1.4 5.8 3 11.7 4.9 17.4.3 1 2.1 1.5 3.3 2.2.6-1.1 1.6-2.1 1.7-3.3.2-3.2 0-6.3 0-9.4z" fill="#b9b9b9"/><path d="m133.2 71.2c-1.7.7-3.4 1.3-5 2-.6.3-1.4.8-1.5 1.3-1.5 5.9-3.1 11.9-4.2 17.9-.3 1.4.8 3.9 2 4.7 2 1.2 3.8-.6 5.2-2.1.3-.3.5-.7.7-1.1 3.3-4.7 4.6-10.2 5.6-15.7.6-3.1.7-5.7-2.8-7z" fill="#f0222c"/><path d="m195 70.7c-1 1.5-2.8 2.9-2.7 4 .6 5.8 1.6 11.7 4.6 16.9 1.1 1.8 2.4 3.6 4 4.9 2.1 1.8 4.6.8 5.1-2 .2-1.1.4-2.3.2-3.4-.8-3.9-1.7-7.8-2.5-11.8-.8-3.7-2.2-6.8-6.5-7.5-.6 0-1.1-.5-2.2-1.1z" fill="#f0222c"/><path d="m165.7 130.5c.2 0 .5 0 .7.1 0 3.1-.1 6.2.1 9.3.1 1.2 1 2.3 1.5 3.4 1.2-.7 2.3-1.3 3.4-2 .4-.3.6-.9.8-1.4 3-7.6 4.4-15.6 4.8-23.7 0-.6-.2-1.5-.6-1.8-1.7-1.4-8.4.6-8.8 2.7-.9 4.4-1.3 9-1.9 13.4z" fill="#b9b9b9"/><path d="m169.6 285 .9.6c.4-.8 1-1.6 1.2-2.5 2.7-11.7 5.5-23.2 8.1-34.9 1.4-6.5 2.6-13.1 3.6-19.7.2-1.4-.7-3.9-1.6-4.2-2.2-.6-2.6 1.8-3.4 3.3-.5.9-.9 2-1 3-.8 5.2-1.8 10.6-2.3 15.9-.8 7.9-.8 16.1-1.8 24-.7 4.9-2.5 9.7-3.7 14.5z" fill="#f0222c"/><path d="m158.5 285.5c.3-.2.5-.5.8-.7-3-9.1-5.2-18.5-5.4-28.2-.1-6.2-.4-12.5-1.1-18.7-.5-3.9-1.8-7.7-3.1-11.6-.3-1-1.9-1.5-2.8-2.3-.5 1-1.3 2-1.4 3.1-.1 2.1-.1 4.3.3 6.4 1.6 7.4 3.3 15 5 22.4 2.1 9.1 4.2 18.4 6.4 27.5.2.9.8 1.5 1.3 2.1z" fill="#f0222c"/><path d="m150.5 131.2c-.6-7.4-1-14.1-1.9-20.5-.3-1.8-2.2-3.5-3.8-4.8-1.9-1.5-3-.8-3.2 1.7-.2 4 0 8.1-.8 12-1.2 6.2 2.9 9.9 7.7 12.2.7.1 1.7-.5 2-.6z" fill="#b9b9b9"/><path d="m187.3 119.7c0-4.1.1-8.2 0-12.4 0-2.1-1-2.8-2.9-1.9-2.4 1.1-4.2 2.9-4.4 5.6-.7 6.2-1.1 12.5-1.7 18.7-.2 2.1.8 2.7 2.5 1.7 5.4-3 8.1-5.6 6.5-11.7z" fill="#b9b9b9"/><path d="m144.2 198.8c-.8-5.3-1.7-10.8-2.3-16.1-1.1-9.8-1.5-19.6-.5-29.5.6-6.5 1.2-13 1.7-19.5.1-1-.5-2.1-.7-3.2-.3.1-.6.1-1 .2-5.6 23-4.2 45.7 2.8 68.1z" fill="#f0222c"/><path d="m184.5 199.8c7-22.8 8.3-45.8 2.4-69.2-.7.6-1.1 1.3-1.2 2 0 1.7.1 3.4.2 5.1.6 7.6 1.5 15.3 1.8 23 .6 13.1-.7 26.2-3.2 39.1z" fill="#f0222c"/><path d="m156.9 177.6c-.3 3.5-.8 6.9-1 10.5-.3 6.2-.4 12.5-.4 18.7 0 1.8.1 4.2 2.6 4.3 2.6.1 2.9-2.5 3.2-4.3 1.9-10.1-.3-19.7-4.4-29.2z" fill="#f0222c"/><path d="m172.3 177.3c-.3 0-.6 0-1 0-3.3 9-5.5 18.3-4.1 28.1.2 1.5.7 3.2 1.5 4.5 1.1 1.8 3 1.5 3.9-.4.3-.7.6-1.5.6-2.3-.2-9.9-.6-19.8-.9-29.9z" fill="#f0222c"/><path d="m119.1 97.7c-3.5 3.3-5.8 7.8-7.5 15.6-2 8.4-3.7 17.1-9.1 24.3.7-.2 1.3-.5 1.6-1 3.9-6.2 7.6-12.5 11.7-18.6 4-6.2 5.3-12.8 3.3-20.3z" fill="#f0222c"/><path d="m225.9 137.7c.2-.1.4-.3.6-.4-4.8-6.1-6.9-13.4-8.6-20.8-1.1-4.6-2.8-9.1-4.5-13.7-.7-1.9-2.3-3.4-3.6-5.3-2.2 8-.6 14.8 3.7 21.2 3.9 5.8 7.5 12 11.3 17.9.2.4.7.7 1.1 1.1z" fill="#f0222c"/><path d="m126.4 71.4c7.4-.2 13.7-7.6 17.1-18.7-2-.7-3.7-.5-5.4.9-5.8 4.6-9.4 10.7-11.7 17.8z" fill="#b9b9b9"/><path d="m185.7 51.8c2.8 11.4 9.3 19.6 16.8 19.5-2.4-6.9-5.8-13.1-11.6-17.6-1.4-1-3.5-1.2-5.2-1.9z" fill="#b9b9b9"/><path d="m161.6 182.7c-3-17-10.7-32.3-17.1-48.6-.6 5.1.3 9.6 2.1 13.8 4.8 11.5 9.9 23.1 15 34.8z" fill="#f0222c"/><path d="m167.7 182.2c1.2-3.1 2.3-6.3 3.6-9.4 3.5-8.1 7.2-16.3 10.7-24.5 2.2-5.4 2.8-10.3 2.1-13.8-6.3 15.7-13.7 30.9-16.4 47.7z" fill="#f0222c"/><path d="m162.6 108.4c0-5.9-1-6.8-6.7-6.2-3.8.4-6.4 5.1-4.6 8.4.3.6 1.4.9 2.1 1.1 1.4.3 2.8.2 4.2.5 5 1.4 5 1.4 5-3.8z" fill="#b9b9b9"/><path d="m166.3 113.2c3.7-.6 7.1-1 10.5-1.6.4-.1.8-.9.9-1.4.8-2.6-.1-5.6-2-7-1.8-1.3-6.8-1.5-8.4-.3-.4.3-.9 1-.9 1.5v8.8z" fill="#b9b9b9"/><path d="m162.6 99.6c0-1.7 0-3.4 0-5.1 0-4.4-1.7-5.6-5.8-4-1.3.5-2.6 1.3-3.6 2.2-2.6 2.3-3 5.9-1.5 7.8 3.5-.3 6.9-.6 10.9-.9z" fill="#b9b9b9"/><path d="m177.5 100.5c1-2.4.6-4.9-1.2-7.1-2-2.4-4.7-3.8-7.9-3.4-.7.1-1.9.9-1.9 1.4-.2 2.8-.1 5.6-.1 8.1 3.8.4 7.2.7 11.1 1z" fill="#b9b9b9"/><path d="m144.3 238.4c-.3 0-.5 0-.8 0 .2 3.2 0 6.4.7 9.6 2.7 11.4 5.6 22.6 8.5 33.9.3 1.4.7 2.8 1.1 4.6 1.1-2.3-7.8-45.7-9.5-48.1z" fill="#f0222c"/><path d="m105 141.5c-1.9 1.6-3.5 3.2-5.3 4.6-1.7 1.2-3.7 2.1-5.5 3.3-2.1 1.5-2.1 2.9.3 3.8 2.6 1 5.5 1.5 8.2 1.9 3.1.4 3.6-.4 2.7-3.4-.2-.7-.5-1.4-.5-2.1.1-2.6.1-5.3.1-8.1z" fill="#b9b9b9"/><path d="m184.9 238.4c-.2 0-.4 0-.6-.1-.3.5-.6 1-.7 1.6-3.2 15-6.4 30-9.6 45-.1.3.5.8 1 1.5 1-4.6 1.9-8.5 2.9-12.6 2.3-9 4.8-18.1 6.9-27.2.6-2.6.1-5.5.1-8.2z" fill="#f0222c"/><path d="m224.4 142.7c-.5 3-1 6.7-1.6 10.6-.3 1.8 1 2 2.1 1.9 2.7-.3 5.4-.7 8.1-1.4 1.1-.3 2-1.5 3.1-2.3-.9-.9-1.6-2-2.6-2.7-3.2-2.3-6.4-4.3-9.1-6.1z" fill="#b9b9b9"/><path d="m191.1 67.4c-1.9-3.3-3.7-6.2-5.3-9.2s-4.1-4.8-7.3-5.7c-2.9-.9-6.5-.2-8.4 1.6 8.4 1.9 14.2 8.2 21 13.3z" fill="#b9b9b9"/><path d="m137.7 67.3c6.8-5 12.7-11.4 21.3-13.5-4.2-3.3-13.1-1.9-16.3 4.5-1.3 3-3.2 5.8-5 9z" fill="#b9b9b9"/><path d="m123.8 71.8c3.5-6.9 6.4-14.1 13.2-18.9-4.7-1.5-9.1.5-11.1 5-2 4.3-2.5 9-2.1 13.9z" fill="#b9b9b9"/><path d="m151.1 90.6c3.5-1.1 6.8-2 10.1-3.1.6-.2 1.2-1.1 1.3-1.7.2-1.2.2-2.5 0-3.7-.1-.6-.8-1.4-1.4-1.5-3.3-.5-6.1.9-8.4 3.1-2 1.9-2.4 4.4-1.6 6.9z" fill="#b9b9b9"/><path d="m204.9 71.7c.3-5.7.2-11.5-3.5-16.4-2.1-2.7-6.1-3.7-9.3-2.4 6.5 4.8 9.5 11.7 12.8 18.8z" fill="#b9b9b9"/><path d="m177.5 90.6c1.3-4.6-1-8.3-6.2-9.9-4.1-1.1-5.1-.4-4.9 3.8 0 1 .5 2.6 1.2 2.8 3.1 1.3 6.4 2.2 9.9 3.3z" fill="#b9b9b9"/><path d="m186 174.9c-3.4 10.8-5.1 21.9-6.6 33.2-.1.6.6 1.3 1.2 2.5 3.9-12 4.6-23.7 5.4-35.7z" fill="#f0222c"/><path d="m148.6 209.8c0-11.8-2.5-23.1-5.7-34.4.6 11.7 1.5 23.2 5.7 34.4z" fill="#f0222c"/><path d="m168.8 170c.9-3 1.9-6 2.7-9.1.3-1 .1-2.3-.3-3.3-1.5-3.1-3.2-6-4.8-8.8-1.5 4.3-.1 17 2.4 21.2z" fill="#f0222c"/><path d="m160.1 170.6c2.7-7.7 3.2-15.1 2.4-22.4-1.5 2.8-3.1 5.6-4.5 8.4-.5 1-1.2 2.2-1 3.2.8 3.5 1.9 6.9 3.1 10.8z" fill="#f0222c"/><path d="m154.8 142.6c-3.5 5.1-2.2 9.7 1.5 13.9 5.9-8.8 5.6-9.8-1.5-13.9z" fill="#f0222c"/><path d="m173.7 142.1c-1.7 1.5-3.4 3-5 4.6-.3.3-.5 1.2-.4 1.6 1.2 2.7 2.4 5.4 3.8 8.5 4-4.7 5.5-9.1 1.6-14.7z" fill="#f0222c"/><path d="m165.7 53.4c3.8-6.2 8.1-12.4 8.1-20.5-4.8 6.2-8.7 12.4-8.1 20.5z" fill="#b9b9b9"/><path d="m155 33c-.1 8.2 4.2 14.2 7.8 20.6 1.6-5-1.5-12.9-7.8-20.6z" fill="#b9b9b9"/><path d="m166.7 209.5c0 3-.5 5.8.1 8.3 1.6 5.9 3.7 11.8 5.6 17.7 1.4-4.8.4-9.1-1.6-13.5-1.8-3.8-2.6-8-4.1-12.5z" fill="#f0222c"/><path d="m162 210.7c-1.6 4.4-2.9 8.9-4.8 13.4-1.8 3.9-1.7 7.7-.8 11.4.8-2.5 1.2-5.4 2.6-7.7 3.2-5.6 3.5-11.4 3-17.1z" fill="#f0222c"/><path d="m163.6 8c0-1.9.1-4.2-.1-6.5-.1-.6-1.3-1.5-2.1-1.5-5 .1-6.6 2.8-5 7.3 2.6.2 5 .5 7.2.7z" fill="#b9b9b9"/><path d="m172.6 7.4c.2-.8.8-2.2.5-3.3s-1.3-2.5-2.4-3c-1.5-.7-3.3-.7-5-.9-.1 0-.3.4-.3.7-.2 2.5-.4 5-.5 7 2.6-.2 5.1-.3 7.7-.5z" fill="#b9b9b9"/><path d="m169.4 230.6c-1.5 6.8-2.8 13.7-.8 20.7 3.2-6.8 2.1-13.7.8-20.7z" fill="#f0222c"/><path d="m190.3 88.6c-2.4 3.2-4.9 6.2-7 9.4-1.1 1.7-1.4 3.9-.2 6 4.4-2.4 7.2-8.4 7.2-15.4z" fill="#b9b9b9"/><path d="m160.3 251.3c2.2-6.9.5-13.8-.9-20.5-1.1 6.9-2.7 13.8.9 20.5z" fill="#f0222c"/><path d="m138.3 88.5c.4 6.3 1.7 11.9 7.2 15.9 1.4-2.6.9-4.8-.5-6.7-1.9-3.1-4.3-5.9-6.7-9.2z" fill="#b9b9b9"/><path d="m123.6 113.8c-9.7 5.3-11.4 16.1-17.1 24.2 5.7-8 11.4-16.2 17.1-24.2z" fill="#f0222c"/><path d="m222.2 137.9c-5.6-7.7-7.2-18.5-16.7-23.6 5.6 7.8 11.1 15.8 16.7 23.6z" fill="#f0222c"/><path d="m171.9 250.7c-.4-.1-.8-.1-1.2-.2-3.8 8.5.8 17.4-1.3 26 .3 0 .7 0 1 .1.5-8.6 1-17.2 1.5-25.9z" fill="#f0222c"/><path d="m130.6 103.5c-4.9 1.9-9.9 6.6-10.6 10.1 2.5-1.3 5.1-2.7 7.7-4 2.8-1.4 3.4-2.7 2.9-6.1z" fill="#f0222c"/><path d="m158 274.7h.6c.2-4.1.5-8.1.7-12.3.4-8 .2-9.6-2.3-11.9.3 8.3.6 16.3 1 24.2z" fill="#f0222c"/><path d="m184.6 206.6c-.2 0-.3-.1-.5-.1-1.7 5.3-3.4 10.6-5.2 16.3 1.7-1.2 2.9-2 4-3 .7-.6 1.5-1.4 1.6-2.1.2-3.7.1-7.4.1-11.1z" fill="#f0222c"/><path d="m209.4 113.9c-2.6-5-6.5-8-11.3-10.7-.3 2.5-.1 4.5 1.8 5.6 3 1.9 6 3.3 9.5 5.1z" fill="#f0222c"/><path d="m149.8 222.6c-1.5-4.9-2.9-9.3-4.4-13.9-.2-.6-.5-1.1-1-2.3v12.7c1.9 1.2 3.4 2.2 5.4 3.5z" fill="#f0222c"/><path d="m176.4 211.3c-2.2 0-3.7 1.2-3.7 2.9 0 1.6 1.9 3.7 3.5 3.8 1.4.1 3.6-2.2 3.5-3.8 0-2.2-1.8-2.6-3.3-2.9z" fill="#f0222c"/><path d="m149.1 215.3c.8.7 1.9 2.1 3.3 2.6s3.8-2.2 3.6-3.8c-.2-2.1-1.8-2.8-3.6-2.7-1.7 0-3.2.7-3.3 3.9z" fill="#f0222c"/><path d="m92.1 144.7c5.8 1.4 10-.3 11.1-4.3-4.4-.8-7.7.9-11.1 4.3z" fill="#b9b9b9"/><path d="m225.4 140.3c1.8 4.3 6.4 6.1 11 4.1-3.1-3.1-6.4-4.7-11-4.1z" fill="#b9b9b9"/><path d="m213.4 134.6c-4.2-7.8-8.4-15.7-12.7-23.5 1.8 9.1 7.5 16.2 12.7 23.5z" fill="#f0222c"/><path d="m160.4 37.3c1.4 1.9 2.7 3.9 4 5.7 1.3-1.8 2.6-3.8 3.9-5.7-2-1.8-5.4-1.8-7.9 0z" fill="#b9b9b9"/><path d="m128.4 111.7c-.2-.1-.4-.2-.6-.3-3.9 7.4-7.9 14.9-11.9 22.3 5-6.9 10.4-13.6 12.5-22z" fill="#f0222c"/><path d="m174.2 41.8c.8 4.4 5.8 8.5 11.9 6.4-4-2.1-7.9-4.2-11.9-6.4z" fill="#b9b9b9"/><path d="m142.7 48.4c6.4 2 11.6-2.7 11.9-6.4-4.1 2-8 4.1-11.9 6.4z" fill="#b9b9b9"/><path d="m218.9 140.2c.2-.1.4-.2.5-.4-3.6-7.6-7.3-15.1-13.4-21.3 4.3 7.4 8.6 14.6 12.9 21.7z" fill="#f0222c"/><path d="m109 139.7c.3.2.6.3.9.5 4.2-7.1 8.4-14.3 12.7-21.5-.4-.2-.7-.4-1.1-.6-4.2 7.3-8.3 14.4-12.5 21.6z" fill="#f0222c"/><path d="m140.9 87.2c-.1 2.9 2.6 6.7 5.7 7.8 1.1-4.2-.6-6.7-5.7-7.8z" fill="#b9b9b9"/><path d="m182.6 96c2.3-3.1 4.1-5.6 6.4-8.7-5.6.2-8.4 4.3-6.4 8.7z" fill="#b9b9b9"/><path d="m124.8 74.9c-4.9 3.9-6.3 22.2-1.8 26.7-3.7-9.4-1.9-18.1 1.8-26.7z" fill="#f0222c"/><path d="m204.1 75c3.6 8.5 5.3 17.2 1.7 26.8 4.4-4.8 3-22.9-1.7-26.8z" fill="#f0222c"/><path d="m156.2 297.4.7.7c.6-.6 1.7-1 1.8-1.7.4-2.6.6-5.2.8-7.9 0-.5-.6-1-1-1.5-.4.4-1.1.8-1.2 1.3-.5 2.9-.8 5.9-1.1 9.1z" fill="#b9b9b9"/><path d="m171.8 298 .7-.7c-.3-3-.6-6-1-8.9-.1-.5-.8-.9-1.2-1.4-.4.6-1.1 1.2-1.1 1.7.2 2.6.5 5.1.9 7.6.2.7 1.1 1.2 1.7 1.7z" fill="#b9b9b9"/><path d="m158.7 26.4c2.3 3.4 9.6 3.3 11.3 0-3.7 0-7.3 0-11.3 0z" fill="#b9b9b9"/><path d="m173.1 14.3c.1-3.4-1-5.3-2.9-5.6-2.1-.4-3.9 1.2-4.7 4.5 2.8-1.8 5.2-1.4 7.6 1.1z" fill="#b9b9b9"/><path d="m181.7 88c.3.1.6.3 1 .4 1.4-2.8 2.9-5.5 4.3-8.3-.2-.1-.5-.2-.7-.4-5.6 3.7-5.8 4.2-4.6 8.3z" fill="#b9b9b9"/><path d="m163.2 13.1c-.5-3.1-2.2-4.7-4.4-4.4-2 .3-3.2 2.2-3 5.2 2.1-1.8 4.5-2.6 7.4-.8z" fill="#b9b9b9"/><path d="m142.1 79.2c.8 3.8 2 6.7 4.8 9 1.5-3.9 1-4.9-4.8-9z" fill="#b9b9b9"/><path d="m232 155.4c-.2.3-.4.6-.6.9 1.1 2.5 2.1 5 3.3 7.5.3.6 1.1.9 1.6 1.4.1-.8.4-1.6.2-2.3-.8-2.1-1.8-4.2-2.8-6.3-.3-.6-1.1-.8-1.7-1.2z" fill="#b9b9b9"/><path d="m96.3 155.3c-.3 0-.5.1-.8.1-1.2 2.7-2.4 5.3-3.6 8-.2.5.2 1.2.3 1.8.5-.4 1.3-.6 1.5-1.1 1.1-2.2 2.2-4.5 3-6.8.4-.5-.2-1.3-.4-2z" fill="#b9b9b9"/><path d="m236.4 147.8c1.6 1 2.9 1.9 4.4 2.7.5.2 1.2-.2 1.9-.3-.1-.6-.1-1.5-.4-1.9-.7-.8-1.7-1.2-2.6-1.9-1.7-1.3-2.7-.8-3.3 1.4z" fill="#b9b9b9"/><path d="m165.9 14.2c.7 2.3 3.7 4 5.9 3.3.8-.2 1.2-1.5 2.1-2.7-3.3-.3-5.5-.4-8-.6z" fill="#b9b9b9"/><path d="m158.6 24.9h11.5c-2.5-2.8-8.9-2.8-11.5 0z" fill="#b9b9b9"/><path d="m122.7 103.8c4.6-1.7 7.7-4.8 9.2-9.3.3.3.6.7.9 1-3.3 2.8-6.7 5.5-10.1 8.3z" fill="#f0222c"/><path d="m163.1 14.2c-2.5.2-4.9.4-7.8.6.5 1 .6 2.2 1.3 2.6 1.8 1 5.5-.8 6.5-3.2z" fill="#b9b9b9"/><path d="m205.7 104.2c.3-.3.6-.6.8-.8-3.7-2.8-7.3-5.7-11.1-8.5.3-.4.7-.7 1-1.1 1.7 4.8 4.8 8.2 9.3 10.4z" fill="#f0222c"/><path d="m92.9 154.7c-.2-.3-.4-.8-.6-.8-.4-.1-1 0-1.2.2-1.4 2.2-2.8 4.5-4.1 6.8-.1.2.1.8.4 1.1.1.1.8.1.9-.1 1.6-2.3 3.1-4.7 4.6-7.2z" fill="#b9b9b9"/><path d="m230.3 165.6c.4-.1.7-.2 1.1-.3.4-3.1-1.5-5.6-2.3-8.4-.1-.3-1-.4-2.2-.7 1.3 3.5 2.4 6.5 3.4 9.4z" fill="#b9b9b9"/><path d="m240.8 162.6c.4-.2.9-.5 1.3-.7-1.1-2.9-2.9-5.4-4.6-8-.1-.2-1 .3-1.8.5 1.8 2.8 3.4 5.4 5.1 8.2z" fill="#b9b9b9"/><path d="m97.4 165.5c.3.1.7.1 1 .2 1-2.8 1.9-5.7 2.8-8.5 0-.2-.6-.8-.8-.7-.4.2-.9.5-1.1.9-.8 2.1-1.5 4.2-2.1 6.3-.2.5.1 1.2.2 1.8z" fill="#b9b9b9"/><path d="m221.4 150.7c.4-.1.8-.1 1.3-.2-.1-2.3-.2-4.7-.5-7 0-.4-.7-.8-1-1.2-.4.4-1 .9-1 1.3.3 2.4.8 4.8 1.2 7.1z" fill="#b9b9b9"/><path d="m171.7 28.7c-3.8.2-4.9 2.8-6.3 5.7 3.6-.5 5-2.9 6.3-5.7z" fill="#b9b9b9"/><path d="m174.9 15.1c2.2-4.1 2-7.7-.2-9.9-1.8 3.3.6 6.3.2 9.9z" fill="#b9b9b9"/><path d="m175.6 297.9c-.6-3.6-.4-7-2.4-9.8 0 2.9.3 5.8.8 8.6 0 .6 1 .8 1.6 1.2z" fill="#b9b9b9"/><path d="m191.3 145.4c0-5.5-.3-11-1.9-16.2-.3 0-.6.1-.9.1 1 5.3 1.9 10.7 2.8 16.1z" fill="#f0222c"/><path d="m106.6 141.8c-.2 3.2-.3 5.8-.4 8.4 3.1-3.6 3.2-6.5.4-8.4z" fill="#b9b9b9"/><path d="m177.9 139.2c-3 1.8-3.1 4-.2 6.4 1.3-2.1 2.3-4.2.2-6.4z" fill="#f0222c"/><path d="m154 5.2c-2.3 2.3-2.4 4.6-.6 9.7.5-3.4 2-6.4.6-9.7z" fill="#b9b9b9"/><path d="m152.6 297.8c2.2-.4 3.5-5.5 3.1-9.7-.3-.1-.5-.1-.8-.2-.8 3.1-1.5 6.3-2.3 9.9z" fill="#b9b9b9"/><path d="m163 34.3c-1.2-4.1-2.2-5.1-5.8-5.5 1.1 2.8 2.5 5 5.8 5.5z" fill="#b9b9b9"/><path d="m150.6 139.2c-1.6 2.3-1 4.3.6 6.4 2.6-2.8 2.4-4.9-.6-6.4z" fill="#f0222c"/><path d="m175.3 21.8c-1.2 3.2-2.2 6.1-3.3 9 3.6-2.2 5.4-6.6 3.3-9z" fill="#b9b9b9"/><path d="m137 144.2c.2 0 .4 0 .6.1.8-4.9 1.7-9.9 2.5-14.8-.4-.1-.8-.1-1.2-.2-.7 4.9-1.3 9.8-1.9 14.9z" fill="#f0222c"/><path d="m156.6 30.9c-1-2.8-1.7-5.1-2.5-7.5-.2-.5-.6-.9-.9-1.3-.2.5-.7 1-.7 1.4.2 2.9 1.1 5.6 4.1 7.4z" fill="#b9b9b9"/><path d="m162.1 288c-.3 0-.6 0-.9 0-.3 2.8-.6 5.6-.8 8.4 0 .4.6.8 1 1.2.2-.4.7-.8.7-1.2 0-2.8 0-5.6 0-8.4z" fill="#b9b9b9"/><path d="m167.7 288c-.3 0-.7 0-1 0v8.6c0 .3.6.7 1 .9.1.1.8-.5.8-.7-.3-3-.6-5.9-.8-8.8z" fill="#b9b9b9"/><path d="m142.8 85.3c-1.3-2.1-2.2-3.7-3.4-5.7-1.5 4.1-.8 5.5 3.4 5.7z" fill="#b9b9b9"/><path d="m186.1 85.3c4-.1 4.8-1.8 3.1-5.5-1 1.8-1.9 3.5-3.1 5.5z" fill="#b9b9b9"/><path d="m171.5 24.9c1-1.3 1.9-2.3 2.5-3.4.2-.4.2-1.3-.1-1.5-.3-.3-1.4-.4-1.5-.2-1 1.4-2.5 2.8-.9 5.1z" fill="#b9b9b9"/><path d="m102.1 163.7c.4.1.8.2 1.3.3.7-2.2 1.4-4.4 2-6.6.1-.2-.3-.8-.4-.8-.4 0-1 .2-1 .4-.5 2.1-1.2 4.3-1.9 6.7z" fill="#b9b9b9"/><path d="m225.3 164c.3-.1.5-.1.8-.2.5-2.4-.9-6.5-3.1-7.6.8 2.8 1.5 5.4 2.3 7.8z" fill="#b9b9b9"/><path d="m153.5 225.5c.8-2.5 1.3-4.3 1.9-6.2-1.3.4-2.3.7-3.5 1 .4 1.6.9 3.1 1.6 5.2z" fill="#f0222c"/><path d="m157.1 24.7c2-1.8.3-3.2-.4-4.6-.2-.3-1.1-.3-1.7-.5-.1.6-.5 1.3-.3 1.8.7 1.2 1.5 2.1 2.4 3.3z" fill="#b9b9b9"/><path d="m174.3 49c-.7-1.8-1.2-3.1-1.7-4.6-.8 1.8-1.4 3.2-2.3 5.2 1.6-.3 2.7-.4 4-.6z" fill="#b9b9b9"/><path d="m175.3 225.5c.6-1.9 1.1-3.5 1.6-5.3-1.2-.3-2.3-.6-3.5-.9.6 2.1 1.2 4 1.9 6.2z" fill="#f0222c"/><g fill="#b9b9b9"><path d="m159 22.4c2.5-.7 2.1-2.3 1.6-4.2-1.1.3-2 .6-3.1.9.5 1.2.9 2.1 1.5 3.3z"/><path d="m158.7 49.8c-1.1-2.1-1.8-3.5-2.7-5.3-.6 1.7-1 3-1.5 4.5 1.1.2 2.2.4 4.2.8z"/><path d="m171.4 19.1c-1.2-.3-2.2-.6-3.2-.9-.5 3.1-.5 3.1 1.6 4.1.4-1 .9-1.9 1.6-3.2z"/><path d="m175.6 289.9c1.2 6.2 2.2 7.6 4.2 6.6-1.4-2.1-2.7-4.2-4.2-6.6z"/><path d="m153 291.3c-.2-.1-.4-.2-.6-.3-1.2 2-2.5 3.9-3.7 5.9.2.2.5.3.7.5 3-.9 2.3-4.2 3.6-6.1z"/><path d="m179.4 80.8c.3.4.7.8 1 1.2 1.2-1.2 2.5-2.3 3.7-3.5-.2-.2-.3-.4-.5-.6-1.4 1-2.8 1.9-4.2 2.9z"/><ellipse cx="160.3" cy="301.6" rx="1.6" ry="2.4"/><ellipse cx="168.2" cy="301.6" rx="1.6" ry="2.4"/><path d="m174 303-.2.1c-.3.2-.7.1-.9-.2l-.8-1.4c-.2-.3-.1-.7.2-.9l.2-.1c.3-.2.7-.1.9.2l.8 1.4c.2.3.1.7-.2.9z"/><path d="m177.4 303-.2.1c-.3.2-.7.1-.9-.2l-.8-1.4c-.2-.3-.1-.7.2-.9l.2-.1c.3-.2.7-.1.9.2l.8 1.4c.2.3.1.7-.2.9z"/><path d="m179.9 302.1-.2.1c-.3.2-.7.1-.9-.2l-.8-1.4c-.2-.3-.1-.7.2-.9l.2-.1c.3-.2.7-.1.9.2l.8 1.4c.2.4.1.8-.2.9z"/><path d="m182.2 301.4-.2.1c-.3.2-.7.1-.9-.2l-.8-1.4c-.2-.3-.1-.7.2-.9l.2-.1c.3-.2.7-.1.9.2l.8 1.4c.2.3.1.7-.2.9z"/><path d="m154.1 303.5.2.1c.3.2.7.1.9-.2l.8-1.4c.2-.3.1-.7-.2-.9l-.2-.1c-.3-.2-.7-.1-.9.2l-.8 1.4c-.2.3-.1.7.2.9z"/><path d="m151.3 302.9.2.1c.3.2.7.1.9-.2l.8-1.4c.2-.3.1-.7-.2-.9l-.2-.1c-.3-.2-.7-.1-.9.2l-.8 1.4c-.3.3-.2.7.2.9z"/><path d="m148.8 302.1.2.1c.3.2.7.1.9-.2l.8-1.4c.2-.3.1-.7-.2-.9l-.2-.1c-.3-.2-.7-.1-.9.2l-.8 1.4c-.2.3-.1.7.2.9z"/><path d="m146.5 301.3.2.1c.3.2.7.1.9-.2l.8-1.4c.2-.3.1-.7-.2-.9l-.2-.1c-.3-.2-.7-.1-.9.2l-.8 1.4c-.2.4-.1.8.2.9z"/><path d="m334.6 133.3c.2-1.2.5-1.7.4-2.3-.4-12.4-.7-24.6-1.3-37-.2-3.4-.2-6.9-2.7-9.9-4.3-4.9-9-8.8-15.8-9.8-3.2-.4-6.3-1-10.1-1.6.5 2 .7 3.2 1.1 4.4 4.5 12.9 8.9 25.7 13.6 38.5.7 2 2.1 3.9 3.5 5.6 2.7 3.2 5.6 6.2 8.4 9.3 1 1 1.8 1.7 2.9 2.8z"/><path d="m368.1 73.2c-1.3 0-2.2-.1-3 0-4.2.9-8.6 1.5-12.8 2.9-5 1.7-8.2 5.8-11.3 10-.6.8-1 2-1 3-.7 13.5-1.3 26.9-1.9 40.4 0 1.1.2 2.2.3 3.3.5.3.9.7 1.4 1 .4-.9.6-1.9 1.2-2.7 2.4-2.9 5.1-5.7 7.5-8.7 1.8-2.2 3.8-4.5 4.9-7.1 3.9-10.2 7.5-20.4 11.2-30.7 1.2-3.7 2.2-7.3 3.5-11.4z"/></g><g fill="#f0222c"><path d="m313.5 165.7c3-4.5 7.2-6.7 11.6-8.8.7-.4 1.4-.7 2.1-1.2 3.2-2 4-4.1 3.3-7.9-.9-4.6-1.7-9.2-2.3-14-.7-5.1-1.3-5.5-6-3.3-.1 0-.1.1-.2.1-9.1 4.5-13.4 14.7-10.8 26 .6 2.8 1.5 5.7 2.3 9.1z"/><path d="m360.4 164.7c.7-4.1 1.9-8.5 2.2-13.2.8-10.2-4.3-18.4-13.1-21.7-3-1.1-3.7-.7-4.2 2.5-.7 4.5-1.4 8.9-2.2 13.5-1.2 6.8-.5 8 5.6 11.5 4.1 2 7.7 4.8 11.7 7.4z"/><path d="m306.7 50.2c0 .2-.1.5-.1.7 6.6 0 10.1 3.7 12.6 9.3 2.8 6.4 6.3 12.7 11.7 17.5.8.7 1.7 1.3 2.9 2.3.3-1.2.7-1.8.6-2.5-.2-6.2-.3-12.5-.6-18.8-.1-3.1-1.7-5.2-4.7-6-5-1.3-10.2-2.8-15.3-3.6-2.2-.3-4.7.7-7.1 1.1z"/><path d="m366.7 50.7c-.7-.4-1.1-.6-1.4-.7-7.8-2.2-14.9.5-22 3-2.6 1-3.7 2.9-3.8 5.5-.2 6.2-.4 12.5-.5 18.8 0 .7.2 1.5.4 2.6 1.1-.7 1.8-1 2.3-1.6 2.5-2.9 5.2-5.6 7.3-8.8 2.5-3.8 4.5-7.9 6.4-12.1 1.6-3.3 4-5.3 7.6-6.1 1.1-.1 2.2-.3 3.7-.6z"/><path d="m344.7 219.9c.4 0 .7 0 1.1.1.8-2.1 1.7-4.2 2.5-6.4 1.7-4.8 3.7-9.4 5-14.4 2.9-11.6 1.1-23.1-.3-34.6-.4-3.2-2.5-4.8-5.9-5.1-1.3 8.3.5 16.5 1.2 24.8.6 6.8.7 13.8.2 20.5-.3 3.6-2.3 7-3.3 10.7-.5 1.2-.4 2.8-.5 4.4z"/><path d="m326.3 159.2c-4.1.6-5.8 2.3-6.2 6-.5 5.1-1.3 10.4-1.4 15.5-.1 5.3-.3 10.9.9 16 1.9 7.9 4.9 15.6 7.6 23.6 2.6-2.3 1.4-4.5.5-6.3-4.7-10.2-4.1-20.7-2.5-31.3 1.2-7.8 1.8-15.6 1.1-23.5z"/><path d="m329.4 255.9c5.2-6.1-1.5-42.6-7.7-45.1 0 5.1-.1 10.6 0 15.9.2 6.2.7 12.5 1 18.8.2 4.8 3 7.8 6.7 10.4z"/><path d="m352.3 210.4c-.3-.1-.5-.2-.8-.4-.8 1.3-1.7 2.6-2.2 4-1.1 2.9-1.9 5.9-2.9 8.8-2.7 7.4-4.3 15.1-4.8 23-.2 3.5-.1 7 2.4 10.3 3.3-2.8 6.3-5.2 6.5-9.9.3-8.6.9-17.3 1.4-25.9 0-3.4.2-6.6.4-9.9z"/><path d="m356.3 207.6c-2.4.8-2.7 2.5-2.8 4.2-.1 4.8-.3 9.7-.1 14.5.2 6.9.4 13.8-1.5 20.5-.9 3.2-.2 5.3 2.7 6.8.2-.1.5-.2.6-.4.3-.2.5-.5.7-.8 2.9-5.7 5-11.7 4.1-18.2-1-7.1-2.1-14.3-3.2-21.4-.2-1.7-.3-3.4-.5-5.2z"/><path d="m318.5 253.7c3.8-2.7 3.5-2.7 3-6.6-.8-6.1-1.2-12.4-1.5-18.6-.3-5.8-.2-11.8-.4-17.7-.1-1.1-1.1-2.1-1.6-3.2-.3.1-.6.3-.9.4-.5 3.8-1 7.7-1.5 11.6-.8 6.2-2 12.6-2.2 18.8-.4 5.6 2 10.6 5.1 15.3z"/><path d="m325.3 297.4h.9c.1-1 .2-1.9.3-2.9.7-8.1 1.2-16.4 2-24.5.6-5.6 1.8-11.4-3.1-15.8-.9-.8-2.7-1.7-3.5-1.3-1.5.7-3.3 1.8-2.6 4.3.8 2.8 1.5 5.7 1.9 8.6 1.3 9.8 2.5 19.4 3.8 29.2 0 .8.1 1.6.3 2.4z"/><path d="m347.2 297.3h.9c.1-.8.3-1.5.4-2.3.9-7.9 1.6-16 2.7-23.9.6-4.7 1.8-9.4 2.8-14.1.5-2.3-1.2-3.4-2.6-4.1-.8-.4-2.5.5-3.3 1.2-4.1 3.6-4.1 8.3-3.6 13.3.9 9.1 1.6 18.3 2.3 27.4 0 .8.2 1.7.4 2.5z"/><path d="m358.9 216.4h.4c.1-2.5.3-4.9.4-7.4.2-3.3-.1-6.9.8-10.1 2.6-8.5 2.1-17.1.4-25.6-.8-4.1-2.1-7.7-5.8-9.4.5 5.4 1.4 11.1 1.5 16.7.1 6.2-1.1 12.5-.7 18.7.3 5.7 1.9 11.4 3 17.1z"/><path d="m314.2 216.9c1-4.5 2-8.6 2.6-12.7.4-2.5.5-5.1.4-7.6-.1-5-.7-10-.5-15 .2-5.8 1-11.7 1.6-18.4-1.8 2.1-4 3.5-4.5 5.3-2.4 8.6-4.2 17.4-1.8 26.3 1.4 5.1 2.1 10.3 1.7 15.6-.1 2.1.3 4.1.5 6.5z"/></g><path d="m339.7 23.9c-.4 0-.8-.1-1.2-.1-.3 1-1 2.1-.9 3.1.6 7.1 1.4 14.2 2 21.3.3 3.4.7 3.7 3.9 2.7 4.1-1.3 8.2-2.5 12.1-3.7-2.3-1.8-5.1-3.8-7.8-5.9-5.6-4.4-10-9.3-8.1-17.4z" fill="#b9b9b9"/><path d="m317.8 47.2c3.7 1.1 7.6 2.3 11.6 3.6 3.5 1.1 4 .8 4.2-2.8 0-.7.2-1.4.3-2.1 1.3-6.4 2.3-12.9 1.8-19.4-.1-1-.8-2-1.2-2.9-.3.1-.5.2-.8.3.1.9.3 1.9.4 2.8.2 4.7-1.6 8.5-5.1 11.6-3.9 3.1-7.8 6.2-11.2 8.9z" fill="#b9b9b9"/><path d="m312.3 54.8c-3.8-2.6-8.6-2.9-11.5-.8-4.8 3.6-6.8 13.4-3.5 18.5 4.9-5.8 9.9-11.7 15-17.7z" fill="#b9b9b9"/><path d="m361 54.8c5.1 6 10.1 11.9 15 17.7.3-.1.7-.2 1-.3.1-3 .7-6 .3-8.9-.9-9.5-8.5-13.3-16.3-8.5z" fill="#b9b9b9"/><path d="m370 68.5c-.4 4.2-.8 8.1-1.1 12.1-.2 3.2-.6 6.4-.3 9.6.5 4.7 2.7 8.6 5.5 11.8.4-5.9.5-12 1.1-17.9.7-6.3-1.6-11.1-5.2-15.6z" fill="#b9b9b9"/><path d="m298.7 102c3.7-3.7 6.3-8.1 6.2-13.4-.1-6.6-.9-13.4-1.4-20.2-4.3 4.8-6.1 10.3-5.2 16.7.7 5.7 1.6 11.3.4 16.9z" fill="#b9b9b9"/><path d="m321 73.1c-2-4.8-3.7-8.8-5.4-12.9-.8-1.7-2.3-2.5-3.9-1.1-3.3 2.9-5.6 6.5-6.5 11.1 5.1 1 10.2 1.9 15.8 2.9z" fill="#b9b9b9"/><path d="m352.3 73.1c5.6-1 10.7-2 15.8-2.9-.6-4.2-2.8-7.2-5.4-10.2-2.1-2.3-3.8-2.1-5.1.7-1.8 3.7-3.3 7.7-5.3 12.4z" fill="#b9b9b9"/><g fill="#f0222c"><path d="m297 107.6c-.3-.2-.5-.4-.8-.6-2.9 8.6-5.9 17.3-8.8 25.8 6.6-7.9 11.5-16.7 14.5-26.2-1.8.4-3.4.7-4.9 1z"/><path d="m371.7 106.6c1.1 6.4 9.4 21.9 13.9 25.7-1.2-4.2-2.3-8.5-3.8-12.7s-3.3-8.4-4.9-12.6c-.2.2-.4.4-.6.6-1.7-.3-3.2-.6-4.6-1z"/><path d="m333 155.5c-3.6.3-4.2.9-4.1 3.9.1 3.3-.2 6.6 0 10 .3 5.8.8 11.7 1.2 17.5h.8c2-10.4 2-20.8 2.1-31.4z"/><path d="m342.9 187.1c.2-1.4.4-2.5.6-3.7.4-3.8 1-7.6 1.1-11.5.1-4.2-.4-8.4-.2-12.6.2-2.9-1.2-3.7-3.6-3.9-1.2 5.6.3 27.3 2.1 31.7z"/><path d="m362.7 140c-1-4.5-1.7-9-3-13.5-.8-3.1-2.6-4.1-5.5-4-2.8.1-5.2 1.9-6 4.6 10.7 6.2 10.7 6.2 14.5 12.9z"/><path d="m310.7 139.6c.2.1.5.2.7.3 1.7-7.4 7.5-10.5 14-12.8-1.8-3.4-4.4-5-7.5-4.6-3.2.4-4.2 2.7-4.8 5.3-1 4-1.6 7.9-2.4 11.8z"/><path d="m343.8 213.4c3.8-7.1 4.2-14.8 1.7-31.5-2.2 7.1-3.3 27.5-1.7 31.5z"/><path d="m329.5 213.7c1.5-5.9.4-25.5-1.8-31.3-.4 3.7-.6 7.4-1.1 11.2-1.1 7-.5 13.5 2.9 20.1z"/><path d="m390.9 138.2c.5-6.1-4.9-27.1-7.6-31 .4 10.6 2 21.2 7.6 31z"/><path d="m289.7 108.1c-3.7 9.9-6.8 19.8-7.8 31.2 5.6-10.2 7.7-20.5 7.8-31.2z"/><path d="m393.8 139.3c1.8-.7 4.2-.5 3.3-3.2-2.2-7.3-4.3-14.7-6.7-21.9-1.2-3.6-2.9-7.1-4.4-10.8-.2.1-.5.2-.7.3 4.5 11.3 7.3 23.1 8.5 35.6z"/><path d="m287.4 105.1c-.3-.1-.5-.2-.8-.3-1.2 3-2.6 5.9-3.6 9-2.3 7.1-4.2 14.3-6.5 21.4-.9 2.8-.1 3.9 3.1 3.6.9-11.5 3.9-22.8 7.8-33.7z"/><path d="m333.9 150.8c.4-.1.7-.2 1.1-.2.1-1.7 0-3.5.4-5.2 1-5.1-.1-9-6.1-11.4 1.5 5.8 3.1 11.3 4.6 16.8z"/><path d="m338.3 150.5c3.2-5 4.8-10.3 4.9-16.1-4.3 1.6-6 4.4-5.4 8.6.3 2.6.4 5.1.5 7.5z"/><path d="m350.6 296.9c.3.1.7.2 1 .3.2-.8.6-1.6.7-2.4.1-1.4-.2-2.8 0-4.2.5-3.9 1.5-7.7 1.8-11.6.3-3.6.1-7.2.1-11-.4 0-.9 0-1.3 0-.7 9.6-1.5 19.2-2.3 28.9z"/><path d="m322 297.3c0-5.3.3-10.3-.1-15.1-.4-4.7-1.4-9.3-2.1-14.1-.3 0-.5.1-.8.1 0 3.3-.2 6.6.1 9.9s.6 6.8 1.7 10c1 2.9-1.1 6.5 1.2 9.2z"/><path d="m319.4 120.2c-1.5-4.6-3-9.1-4.5-13.8-.1.1-.2.1-.3.2-.2 5-.5 10.1-.7 15.2 1.8-.5 3.4-1 5.5-1.6z"/><path d="m359.6 121.7c-.4-5-.7-9.7-1-14.3-.2 0-.4 0-.6-.1-1.3 4.2-2.6 8.5-4 12.9 2.3.7 3.8 1.1 5.6 1.5z"/></g><path d="m334.6 7.7c-3 1.7-6 3.1-8.7 5-.9.6-.7 2.3 1.1 2.3 1.4 0 2.8-.3 4.2-.6 3.8-.8 4.5-2 3.4-6.7z" fill="#b9b9b9"/><path d="m338.7 7.8c-1.1 4.5-.4 5.7 3.4 6.6.8.2 1.6.5 2.3.5 1.1-.1 2.3-.4 3.4-.7-.8-.9-1.5-1.9-2.4-2.7s-2.1-1.4-3.2-2c-1-.6-2.2-1.1-3.5-1.7z" fill="#b9b9b9"/><path d="m309.2 176.6c2.9-5.8 3.7-11.7 0-18.2z" fill="#f0222c"/><path d="m362.9 177.4h.9c0-6 0-12.2 0-18.2-1.2 2-2.3 4-2.3 6 .2 4.2 1 8.2 1.4 12.2z" fill="#f0222c"/><path d="m328.9 31.8c4.3-4.3 4.3-7.5 0-12.3z" fill="#b9b9b9"/><path d="m344.4 19c-4.3 5.6-4.4 9.2-.4 13.2 1.4-4.5.5-8.6.4-13.2z" fill="#b9b9b9"/><path d="m292.1 97c1.5-7.1 3.1-14.3 4.8-22.2-4.6 7.3-5 14.7-4.8 22.2z" fill="#b9b9b9"/><path d="m376.4 74.8c1.7 7.8 3.3 15.4 4.9 23 .3-7.9-.3-15.8-4.9-23z" fill="#b9b9b9"/><path d="m377.3 84.4c-.3 0-.6 0-.8 0 0 4.1-.1 8.3.1 12.5 0 .6.8 1.3 1.2 1.9.5-.7 1.4-1.4 1.3-2-.5-4.1-1.2-8.2-1.8-12.4z" fill="#b9b9b9"/><path d="m297 84.4c-.3 0-.7 0-1 0-.6 4.1-1.2 8.1-1.6 12.3-.1.7.9 1.4 1.4 2.1.4-.7 1.1-1.4 1.1-2.1.2-2 .1-4.1.1-6.1s0-4.1 0-6.2z" fill="#b9b9b9"/><path d="m401.9 155.2c-.2.3-.4.6-.6.8 1 2.6 1.8 5.1 2.9 7.7.3.6 1 1 1.6 1.5.1-.8.5-1.6.3-2.3-.6-2.1-1.4-4.2-2.3-6.2-.4-.7-1.3-1-1.9-1.5z" fill="#b9b9b9"/><path d="m266.8 165c.4.1.7.3 1.1.4 2.1-2.7 2.7-6.1 3.9-9.2 0-.1-.6-.7-.9-.7-.4.1-1 .4-1.2.8-.8 1.8-1.4 3.6-2.1 5.5-.3 1-.5 2.1-.8 3.2z" fill="#b9b9b9"/><path d="m292.4 112.5c1.5-3.7 2.9-7.1 4.5-11.2-3.9 2.1-5.7 7-4.5 11.2z" fill="#f0222c"/><path d="m380.6 112c1.1-4.3-.4-8.3-4-10 1.3 3.4 2.7 6.7 4 10z" fill="#f0222c"/><g fill="#b9b9b9"><path d="m408.6 145.4c-.6.5-1.1.8-1.4 1.3-.2.4-.2 1.2 0 1.4 1.3 1 2.7 2 4.2 2.8.3.2 1.1 0 1.4-.3s.4-1.2.1-1.4c-1.3-1.3-2.7-2.5-4.3-3.8z"/><path d="m264.8 145.5c-1.3 1-2.8 1.8-4 3-.4.4-.3 1.3-.4 2 .7.1 1.5.4 2.1.1.9-.4 1.6-1.2 2.4-1.6 2-1.1 1.7-2.2-.1-3.5z"/><path d="m267.7 154.2c-2.4-.3-5.6 5-5 8.2 2.2-2.2 3.2-5.2 5-8.2z"/><path d="m397.6 155.7c-.2.2-.3.3-.5.5.7 2.6 1.3 5.2 2.1 7.8.1.4.9.6 1.3.9.2-.4.6-1 .5-1.3-.6-2.3-1.2-4.6-2-6.8-.1-.5-.9-.8-1.4-1.1z"/><path d="m410.9 162.5c.3-.2.5-.4.8-.6-1.3-2.5-2.6-5.1-3.9-7.6-.2-.3-.9-.3-1.3-.4-.1.5-.3 1-.2 1.4 1 2.1 2.1 4.2 3.3 6.3.2.5.9.6 1.3.9z"/><path d="m271.9 165.1c1-.1 1.5 0 1.5-.1.9-2.7 1.8-5.5 2.6-8.2.1-.2-.4-.7-.6-.7-.4 0-1 .2-1.1.4-.8 2.6-1.6 5.5-2.4 8.6z"/><path d="m404.7 149.4c.3-2.6-2.6-7-4.4-7.4-.3-.1-.8.1-.9.3-.1.3-.2.9 0 1.2 1.6 1.8 3.3 3.6 5.3 5.9z"/><path d="m274.4 142.8c-.1-.2-.2-.4-.3-.6-.6.1-1.4.1-1.7.4-1.6 1.8-4.8 2.7-3.6 6.7 1.9-2.4 3.7-4.4 5.6-6.5z"/><path d="m322.5 301.9c.6-2.8-2.2-5.8-5.5-5.7 1.8 1.9 3.5 3.7 5.5 5.7z"/><path d="m350.6 301.3c3-1.3 4.9-3.5 5.1-5.7-3.5 1.4-5.6 3.6-5.1 5.7z"/><path d="m346.4 25.9c.4 0 .8 0 1.2-.1.1-1.8.2-3.7.2-5.5 0-.4-.8-.7-1.2-1.1-.3.4-1 .9-1 1.3.1 1.8.5 3.6.8 5.4z"/><path d="m325.7 25.9h1.3c.2-1.8.5-3.6.6-5.3 0-.4-.6-.9-.9-1.3-.4.4-1.1.8-1.1 1.2-.1 1.7 0 3.5.1 5.4z"/><path d="m278.9 155c-.6 3-1.1 5.5-1.5 8 .2 0 .5.1.7.1 1.6-2.3 2.3-6.4.8-8.1z"/><path d="m394.7 163.4c.3-.1.6-.1.9-.2.4-2.8-.7-6.6-2.8-7.9.7 3 1.3 5.5 1.9 8.1z"/><path d="m338.5.6c-.3.5-.5.9-.8 1.4 2.4 1 4.8 2 7.3 3 .1-.3.3-.5.4-.8-2.3-1.2-4.6-2.4-6.9-3.6z"/><path d="m328.1 5c2.5-1 4.9-2 7.8-3.2-3.1-.9-5.8.3-7.8 3.2z"/><path d="m344.6 298.6c.4-.2.7-.3 1.1-.5-.8-1.7-1.5-3.4-2.3-5.1-.4.2-.7.3-1.1.5-1.5 2.6 2.2 3.1 2.3 5.1z"/><path d="m327.6 298.1c.2.1.5.2.7.3 3.5-3.9 3.5-3.9 1.4-5.4-.7 1.7-1.4 3.4-2.1 5.1z"/><path d="m271.2 149.5.7 2.1 3.3-5.9z"/><path d="m274.5 151.8h1.6l.9-5.5z"/><path d="m278.2 151.8h1.6l.5-6z"/><path d="m393.2 146.3.7 5.5h1.4z"/><path d="m396.6 146.2 1.1 5.6h1.4v-1.3z"/><path d="m399.1 145.1 2.4 6.5 1-1.6z"/><path d="m326 301.1h-.4c-.6 0-1.1-.5-1.1-1.1v-.4c0-.6.5-1.1 1.1-1.1h.4c.6 0 1.1.5 1.1 1.1v.4c0 .6-.5 1.1-1.1 1.1z"/><path d="m347.9 301.1h-.4c-.6 0-1.1-.5-1.1-1.1v-.4c0-.6.5-1.1 1.1-1.1h.4c.6 0 1.1.5 1.1 1.1v.4c.1.6-.4 1.1-1.1 1.1z"/></g></svg>