<?xml version="1.0" encoding="utf-8"?>
<!-- Generator: Adobe Illustrator 24.2.1, SVG Export Plug-In . SVG Version: 6.00 Build 0)  -->
<svg version="1.1" id="Layer_1" xmlns="http://www.w3.org/2000/svg" xmlns:xlink="http://www.w3.org/1999/xlink" x="0px" y="0px"
	 viewBox="0 0 500 306.2" style="enable-background:new 0 0 500 306.2;" xml:space="preserve">
<style type="text/css">
	.st0{fill:#F0222C;}
	.st1{fill:#B9B9B9;}
</style>
<g>
	<path class="st0" d="M153.4,209.5c0.4-8.8,0.7-17.4,1.1-26.1c0.2-4.1,1.7-8.1,0-12.2c-3.3-7.7-6.8-15.4-10.3-23.5
		c-1.3,8.5-2.5,16.5-0.5,24.8c2.2,9.1,3.9,18.3,5.8,27.5c0.6,3.1,1,6.4,1.5,9.4h2.4V209.5z"/>
	<path class="st1" d="M193.2,71.5c-2.3-1.6-4.4-2.9-6.3-4.4c-1.9-1.5-3.8-3-5.8-4.3c-3-1.9-6-3.7-9.2-5.3c-1.2-0.6-3.2-0.8-4.2-0.1
		s-1.2,2.6-1.2,4.1c0,3.9,0.3,7.7,0.5,11.6c-0.1,0.3-0.2,0.7-0.3,1c-0.9,3.4-0.1,5.1,3.5,5.7C179.3,81.1,186.1,76.4,193.2,71.5z"/>
	<path class="st0" d="M177.8,209.5c2-10.3,3.7-20.7,6.1-30.7c1.6-6.9,3.2-13.7,2.4-20.9c-0.4-3.3-0.9-6.7-1.3-10
		c-0.7,1-1.3,2.1-1.7,3.3c-2.6,6.1-5.4,12.1-7.9,18.2c-1.3,3.1-1.8,6.5-1.4,9.8c0.8,8.1,1.2,16.2,1.6,24.3c0.1,2-0.3,4-0.4,6.1
		C176.4,209.5,177.2,209.5,177.8,209.5L177.8,209.5z"/>
	<path class="st1" d="M136.3,71.4c4.7,4.2,10.4,7.1,16.6,8.3c2.1,0.4,4.2,0.4,6.3,0c3.4-0.6,4.4-2.1,3.5-5.5
		c-0.1-0.6-0.2-1.2-0.3-1.8c0.1-4.3,0.4-8.5,0.4-12.7c0-2.3-1.8-3.4-4.1-2.6c-2,0.7-4,1.6-5.8,2.7C147.4,63.4,142,67.3,136.3,71.4z"
		/>
	<path class="st0" d="M162.7,131.9c0.1-2.7,0.1-5.6,0.1-8.3c0-5.7-2.5-8.2-8.2-8.4c-1.7-0.1-2.7,0.4-2.5,2.4c0.2,2.4,0,5.1,0.6,7.4
		c1.4,5.9,3,11.7,4.9,17.3c0.3,1,2.1,1.5,3.2,2.2c0.6-1.1,1.6-2.1,1.7-3.3C162.8,138.3,162.7,135.2,162.7,131.9L162.7,131.9z"/>
	<path class="st1" d="M133.4,72.4c-1.7,0.7-3.3,1.3-5,2c-0.6,0.3-1.3,0.7-1.5,1.3c-1.5,5.9-3.1,11.9-4.3,17.8
		c-0.1,1.8,0.6,3.5,2,4.7c2,1.2,3.8-0.5,5.2-2.1c0.3-0.3,0.5-0.7,0.7-1.1c3.3-4.7,4.6-10.1,5.7-15.7C136.9,76.3,137,73.6,133.4,72.4
		z"/>
	<path class="st1" d="M195.3,71.9c-1,1.5-2.8,2.9-2.6,4.1c0.6,5.9,1.6,11.7,4.7,16.8c1,1.9,2.4,3.6,4,5c2.1,1.8,4.6,0.8,5.1-2
		c0.3-1.1,0.3-2.3,0.2-3.4c-0.7-4-1.7-7.8-2.5-11.8c-0.8-3.8-2.2-6.9-6.6-7.5C196.7,72.9,196,72.5,195.3,71.9z"/>
	<path class="st0" d="M165.9,131.7c0.2,0,0.5,0,0.7,0.1c0,3.1-0.1,6.3,0.1,9.4c0.3,1.2,0.8,2.4,1.5,3.4c1.1-0.7,2.3-1.3,3.4-2
		c0.4-0.4,0.7-0.9,0.8-1.4c2.9-7.6,4.6-15.6,4.9-23.7c0-0.7-0.2-1.3-0.6-1.8c-1.6-1.3-8.5,0.6-8.8,2.7
		C167,122.7,166.5,127.2,165.9,131.7z"/>
	<path class="st0" d="M169.8,286c0.3,0.2,0.6,0.4,0.8,0.6c0.5-0.8,0.9-1.6,1.2-2.4c2.7-11.7,5.6-23.2,8.1-34.9
		c1.4-6.5,2.6-13.1,3.7-19.7c0.2-1.3-0.7-4-1.6-4.3c-2.2-0.6-2.6,1.8-3.4,3.3c-0.5,0.9-0.8,2-1,3c-0.8,5.3-1.8,10.5-2.3,15.8
		c-0.7,8-0.8,16-1.8,24C172.9,276.6,171,281.4,169.8,286L169.8,286z"/>
	<path class="st0" d="M158.8,286.5c0.3-0.2,0.6-0.4,0.8-0.7c-2.9-9.2-5.3-18.5-5.4-28.2c-0.1-6.3-0.4-12.5-1.1-18.7
		c-0.6-4-1.7-7.9-3.1-11.6c-0.3-1-1.8-1.5-2.8-2.3c-0.6,0.9-1.1,2-1.4,3.1c-0.2,2.1-0.1,4.3,0.3,6.4c1.6,7.5,3.3,14.9,5.1,22.4
		c2.1,9.2,4.3,18.4,6.4,27.6C157.7,285.3,158.2,286,158.8,286.5L158.8,286.5z"/>
	<path class="st0" d="M150.7,132.4c-0.6-7.4-1-14-1.9-20.5c-0.3-1.7-2.2-3.5-3.8-4.8c-1.9-1.5-3-0.8-3.1,1.7c-0.2,4.1,0,8.1-0.8,12
		c-1.2,6.2,2.9,9.9,7.8,12.2C149.3,133.1,150.4,132.4,150.7,132.4L150.7,132.4z"/>
	<path class="st0" d="M187.5,121c0-4.1,0.1-8.2,0-12.3c0-2.1-1-2.8-2.9-1.9c-2.3,1.1-4.2,2.9-4.5,5.7c-0.7,6.2-1.1,12.5-1.7,18.7
		c-0.2,2.1,0.8,2.6,2.5,1.7C186.5,129.6,189.1,126.8,187.5,121z"/>
	<path class="st0" d="M144.5,200c-0.8-5.4-1.7-10.7-2.3-16.1c-1.2-9.8-1.4-19.7-0.5-29.5c0.6-6.5,1.2-13,1.7-19.5
		c0.1-1-0.5-2.1-0.7-3.2c-0.3,0.1-0.6,0.1-0.9,0.2C136.1,154.9,137.5,177.5,144.5,200z"/>
	<path class="st0" d="M184.7,200.9c7.1-22.8,8.4-45.8,2.4-69.2c-0.6,0.5-1,1.2-1.1,2c0,1.7,0.1,3.3,0.2,5.1c0.6,7.7,1.5,15.3,1.8,23
		C188.4,174.9,187.3,188,184.7,200.9z"/>
	<path class="st0" d="M157.2,178.9c-0.3,3.4-0.8,7-1,10.4c-0.3,6.2-0.4,12.5-0.4,18.7c0,1.8,0.1,4.3,2.6,4.3s2.8-2.4,3.2-4.3
		C163.4,197.8,161.1,188.2,157.2,178.9L157.2,178.9z"/>
	<path class="st0" d="M172.6,178.6h-1c-3.3,9-5.5,18.4-4.1,28.1c0.2,1.6,0.7,3.1,1.5,4.5c1.1,1.8,3,1.5,4-0.4
		c0.4-0.7,0.6-1.5,0.6-2.3C173.3,198.5,172.9,188.6,172.6,178.6L172.6,178.6z"/>
	<path class="st1" d="M119.4,98.9c-3.5,3.3-5.8,7.8-7.6,15.5c-1.9,8.5-3.7,17-9.2,24.3c0.6-0.1,1.2-0.5,1.6-1
		c4-6.2,7.7-12.5,11.7-18.6S121.4,106.4,119.4,98.9z"/>
	<path class="st1" d="M226.1,138.9c0.2-0.1,0.4-0.3,0.6-0.4c-4.8-6.2-6.9-13.4-8.6-20.8c-1.2-4.7-2.7-9.3-4.5-13.7
		c-0.7-1.8-2.2-3.4-3.7-5.4c-2.2,8.1-0.5,14.8,3.7,21.2c4,5.9,7.5,12,11.3,17.8C225.2,138.1,225.6,138.5,226.1,138.9L226.1,138.9z"
		/>
	<path class="st0" d="M126.6,72.5c7.5-0.2,13.7-7.6,17.1-18.7c-1.8-0.8-3.9-0.4-5.4,0.9C132.5,59.3,129,65.5,126.6,72.5z"/>
	<path class="st0" d="M186,53c2.8,11.4,9.3,19.6,16.7,19.5c-2.4-6.9-5.8-13.1-11.6-17.5C189.7,53.8,187.7,53.7,186,53z"/>
	<path class="st0" d="M161.8,183.8c-3-16.9-10.6-32.3-17-48.6c-0.5,4.7,0.2,9.4,2,13.7C151.7,160.7,156.8,172.3,161.8,183.8
		L161.8,183.8z"/>
	<path class="st0" d="M168,183.4c1.2-3.1,2.3-6.3,3.7-9.4c3.5-8.2,7.2-16.3,10.6-24.5c2.2-5.4,2.8-10.2,2.1-13.8
		C178.1,151.5,170.6,166.6,168,183.4z"/>
	<path class="st0" d="M162.8,109.5c0-5.9-1-6.8-6.7-6.3c-3.8,0.4-6.5,5.1-4.7,8.5c0.3,0.6,1.3,0.9,2.1,1.1c1.4,0.3,2.8,0.2,4.3,0.5
		C162.8,114.7,162.8,114.9,162.8,109.5z"/>
	<path class="st0" d="M166.5,114.5c3.8-0.5,7.1-1,10.4-1.6c0.4-0.1,0.8-0.9,0.9-1.4c0.8-2.5,0-5.3-2-7c-1.7-1.3-6.8-1.5-8.4-0.3
		c-0.5,0.4-0.8,0.9-0.9,1.5V114.5z"/>
	<path class="st0" d="M162.8,100.9v-5.1c0-4.5-1.7-5.7-5.9-4.1c-1.3,0.6-2.6,1.3-3.7,2.2c-2.5,2.3-3,6-1.5,7.8
		C155.5,101.4,158.9,101.2,162.8,100.9z"/>
	<path class="st0" d="M177.7,101.8c1-2.4,0.5-5.2-1.2-7.1c-1.9-2.5-4.9-3.7-8-3.3c-0.8,0.2-1.5,0.7-1.9,1.4
		c-0.2,2.7-0.1,5.6-0.1,8.1C170.4,101.2,173.9,101.4,177.7,101.8z"/>
	<path class="st0" d="M144.5,239.4h-0.8c0.2,3.1,0,6.5,0.7,9.5c2.6,11.4,5.7,22.6,8.5,33.9c0.3,1.4,0.7,2.7,1.1,4.7
		C155.2,285.3,146.2,241.9,144.5,239.4L144.5,239.4z"/>
	<path class="st1" d="M105.2,142.8c-1.9,1.6-3.4,3.2-5.3,4.6c-1.7,1.2-3.8,2.1-5.5,3.3c-2.1,1.5-2.1,2.9,0.3,3.9
		c2.7,1,5.5,1.6,8.3,1.8c3,0.4,3.7-0.4,2.7-3.4c-0.2-0.6-0.4-1.3-0.5-2V142.8L105.2,142.8z"/>
	<path class="st0" d="M185.1,239.4c-0.2,0-0.4,0-0.6-0.1c-0.3,0.5-0.6,1-0.7,1.6c-3.2,15-6.4,30-9.5,45c-0.1,0.3,0.5,0.8,1,1.5
		c1-4.6,1.9-8.6,2.9-12.6c2.3-9,4.8-18,6.9-27.2C185.7,245.2,185.1,242.3,185.1,239.4z"/>
	<path class="st1" d="M224.7,143.9c-0.5,2.9-1,6.8-1.6,10.5c-0.3,1.8,1,2,2.1,1.9c2.7-0.3,5.4-0.7,8.1-1.4c1.1-0.3,2-1.5,3-2.2
		c-0.8-1-1.7-1.9-2.6-2.7C230.6,147.6,227.3,145.6,224.7,143.9z"/>
	<path class="st0" d="M191.3,68.4c-1.9-3.2-3.7-6.2-5.3-9.2c-1.5-2.9-4.2-5-7.4-5.8c-2.9-0.8-6.5-0.2-8.4,1.6
		C178.9,57.3,184.4,63.5,191.3,68.4z"/>
	<path class="st0" d="M138,68.4c6.9-5.1,12.7-11.4,21.3-13.5c-4.3-3.3-13.1-1.8-16.2,4.6C141.5,62.4,139.8,65.3,138,68.4z"/>
	<path class="st0" d="M124,73c3.4-6.9,6.4-14.1,13.1-18.9c-4.4-1.6-9.4,0.6-11.1,5C124.1,63.5,123.5,68.2,124,73z"/>
	<path class="st1" d="M151.4,91.8c3.5-1.1,6.8-2,10-3.1c0.7-0.3,1.2-1,1.3-1.7c0.2-1.3,0.2-2.5,0-3.8c-0.2-0.7-0.7-1.3-1.4-1.5
		c-3.1-0.4-6.3,0.8-8.4,3.1C151,86.6,150.4,89.4,151.4,91.8L151.4,91.8z"/>
	<path class="st0" d="M205.1,73c0.3-5.7,0.2-11.5-3.4-16.4c-2.3-2.8-6.1-3.7-9.4-2.3C198.7,58.8,201.8,65.9,205.1,73z"/>
	<path class="st1" d="M177.7,91.8c1.3-4.7-1-8.4-6.2-9.8c-4.2-1.1-5.2-0.4-5,3.9c0,1,0.5,2.5,1.2,2.8
		C170.9,89.7,174.3,90.7,177.7,91.8z"/>
	<path class="st0" d="M186.3,176.2c-3.4,10.7-5.2,22-6.6,33.2c-0.1,0.6,0.6,1.3,1.1,2.5C184.7,199.8,185.4,188.1,186.3,176.2z"/>
	<path class="st0" d="M148.8,211c0-11.8-2.5-23.1-5.7-34.4C143.8,188.2,144.6,199.8,148.8,211z"/>
	<path class="st1" d="M169,171.1c0.9-3,1.9-6.1,2.7-9.1c0.2-1.1,0.1-2.3-0.3-3.3c-1.5-3-3.2-6-4.8-8.9
		C165.2,154.2,166.5,166.9,169,171.1z"/>
	<path class="st1" d="M160.4,171.9c2.4-7.2,3.2-14.9,2.3-22.4l-4.5,8.4c-0.5,1-1.2,2.2-1,3.1C158.1,164.4,159.2,167.8,160.4,171.9z"
		/>
	<path class="st1" d="M155,143.8c-3.5,5.2-2.2,9.6,1.5,13.9C162.3,148.8,162.1,147.8,155,143.8z"/>
	<path class="st1" d="M174,143.4c-1.7,1.5-3.4,3-5.1,4.7c-0.3,0.5-0.5,1-0.4,1.6c1.1,2.7,2.4,5.5,3.9,8.5
		C176.3,153.2,177.9,148.8,174,143.4z"/>
	<path class="st1" d="M165.9,54.6c3.9-6.3,8.1-12.4,8.1-20.5C169.2,40.3,165.3,46.5,165.9,54.6z"/>
	<path class="st1" d="M155.3,34.3c-0.1,8.2,4.3,14.2,7.8,20.6C164.7,49.7,161.5,42,155.3,34.3z"/>
	<path class="st1" d="M167,210.7c0,3-0.5,5.9,0.1,8.3c1.6,6,3.8,11.8,5.7,17.6c1.4-4.8,0.4-9.1-1.6-13.5
		C169.3,219.4,168.4,215.3,167,210.7L167,210.7z"/>
	<path class="st1" d="M162.1,211.9c-1.5,4.4-2.9,9-4.9,13.4c-1.5,3.6-1.8,7.6-0.8,11.4c0.8-2.4,1.2-5.4,2.6-7.8
		C162.4,223.4,162.7,217.6,162.1,211.9L162.1,211.9z"/>
	<path class="st1" d="M163.9,9.1c0-1.9,0.1-4.3-0.1-6.5c-0.4-0.8-1.1-1.4-2-1.5c-5,0.1-6.6,2.8-5,7.4C159.3,8.8,161.6,8.9,163.9,9.1
		z"/>
	<path class="st1" d="M172.9,8.6c0.2-0.8,0.8-2.2,0.5-3.3C173,4,172.2,3,171,2.4c-1.5-0.7-3.3-0.6-5.1-0.9c-0.1,0-0.3,0.4-0.3,0.7
		c-0.2,2.5-0.4,5.1-0.5,7.1C167.8,8.9,170.2,8.8,172.9,8.6z"/>
	<path class="st1" d="M169.6,231.8c-1.5,6.9-2.8,13.7-0.8,20.7C172.1,245.7,170.9,238.8,169.6,231.8z"/>
	<path class="st1" d="M190.6,89.7c-2.4,3.2-5,6.2-7.1,9.4c-1.2,1.8-1.3,4.1-0.2,6C187.8,102.9,190.6,96.8,190.6,89.7z"/>
	<path class="st1" d="M160.5,252.5c2.2-7,0.5-13.7-0.9-20.5C158.6,238.9,157,245.8,160.5,252.5z"/>
	<path class="st1" d="M138.6,89.7c0.4,6.4,1.7,11.9,7.2,15.8c1.3-2.1,1.1-4.8-0.5-6.7C143.3,95.8,141,92.9,138.6,89.7z"/>
	<path class="st1" d="M123.8,115.1c-9.6,5.4-11.4,16.1-17,24.1C112.4,131.2,118.1,123.1,123.8,115.1z"/>
	<path class="st1" d="M222.5,139c-5.7-7.8-7.3-18.5-16.7-23.6C211.3,123.3,216.9,131.3,222.5,139z"/>
	<path class="st1" d="M172.2,251.9c-0.4-0.1-0.8-0.1-1.2-0.2c-3.9,8.5,0.8,17.4-1.3,26.1c0.3,0,0.7,0,1,0.1
		C171.2,269.1,171.7,260.5,172.2,251.9z"/>
	<path class="st1" d="M130.8,104.8c-5,1.9-9.9,6.7-10.5,10c2.5-1.3,5.1-2.7,7.7-4.1S131.4,108,130.8,104.8z"/>
	<path class="st1" d="M158.3,275.9h0.6c0.2-4.1,0.5-8.1,0.7-12.3c0.4-8,0.2-9.5-2.3-11.8C157.6,260,158,268,158.3,275.9z"/>
	<path class="st1" d="M184.8,207.8c-0.2,0-0.3-0.1-0.5-0.1c-1.7,5.3-3.4,10.6-5.3,16.3c1.7-1.2,2.9-2,4.1-2.9
		c0.7-0.5,1.3-1.3,1.6-2.1C184.9,215.3,184.8,211.5,184.8,207.8L184.8,207.8z"/>
	<path class="st1" d="M209.6,115.1c-2.6-5.1-6.5-8-11.3-10.6c-0.3,2.5-0.1,4.6,1.8,5.7C203.1,111.8,206.1,113.4,209.6,115.1z"/>
	<path class="st1" d="M150.1,223.7c-1.5-4.9-2.9-9.4-4.4-13.9c-0.2-0.6-0.5-1.1-1-2.2v12.7C146.5,221.4,148,222.5,150.1,223.7z"/>
	<path class="st1" d="M176.7,212.5c-2.2,0-3.8,1.2-3.8,2.8s1.8,3.8,3.5,3.9c1.4,0.1,3.5-2.2,3.5-3.9
		C179.9,213.2,178.1,212.8,176.7,212.5z"/>
	<path class="st1" d="M149.3,216.5c0.8,0.7,1.9,2.1,3.3,2.6c1.4,0.5,3.9-2.2,3.7-3.9c-0.2-2.1-1.8-2.8-3.5-2.7
		S149.5,213.3,149.3,216.5L149.3,216.5z"/>
	<path class="st1" d="M92.4,145.9c5.8,1.4,9.9-0.3,11.1-4.4C99.2,140.8,95.8,142.6,92.4,145.9z"/>
	<path class="st1" d="M225.7,141.5c1.8,4.4,6.4,6.1,11,4.2C233.6,142.6,230.2,140.9,225.7,141.5z"/>
	<path class="st1" d="M213.6,135.8c-4.3-7.8-8.4-15.7-12.7-23.5C202.7,121.5,208.4,128.4,213.6,135.8z"/>
	<path class="st1" d="M160.6,38.5c1.3,1.9,2.7,3.9,4.1,5.8c1.3-1.8,2.6-3.8,4-5.7C166.3,36.7,163,36.7,160.6,38.5z"/>
	<path class="st1" d="M128.7,112.9l-0.6-0.3c-4,7.4-7.9,14.8-11.9,22.3C121.2,127.9,126.5,121.3,128.7,112.9z"/>
	<path class="st1" d="M174.4,43.1c1.1,4.8,5.8,7.8,10.7,6.8c0.4-0.1,0.8-0.2,1.2-0.4C182.3,47.2,178.5,45.2,174.4,43.1z"/>
	<path class="st1" d="M142.9,49.6c6.4,2,11.6-2.7,11.9-6.4C150.7,45.2,146.9,47.4,142.9,49.6z"/>
	<path class="st1" d="M219.1,141.5c0.2-0.1,0.3-0.2,0.5-0.3c-3.5-7.6-7.4-15.1-13.3-21.3C210.6,127,214.9,134.2,219.1,141.5z"/>
	<path class="st1" d="M109.2,140.9c0.3,0.2,0.6,0.3,0.9,0.5c4.3-7.2,8.4-14.3,12.7-21.5c-0.4-0.2-0.7-0.4-1.1-0.6
		C117.6,126.5,113.5,133.7,109.2,140.9z"/>
	<path class="st1" d="M141.2,88.3c-0.1,2.9,2.6,6.7,5.7,7.8C147.9,91.9,146.2,89.5,141.2,88.3z"/>
	<path class="st1" d="M182.8,97.2l6.4-8.7C183.6,88.7,180.8,92.8,182.8,97.2z"/>
	<path class="st1" d="M125,76c-4.9,3.9-6.3,22.2-1.8,26.8C119.6,93.4,121.4,84.7,125,76z"/>
	<path class="st1" d="M204.3,76.1c3.5,8.6,5.4,17.2,1.7,26.9C210.4,98.2,209,80.1,204.3,76.1z"/>
	<path class="st1" d="M156.4,298.5c0.3,0.2,0.5,0.4,0.7,0.7c0.6-0.6,1.7-1,1.8-1.7c0.4-2.6,0.6-5.3,0.8-7.9c0-0.5-0.6-1-1-1.5
		c-0.4,0.4-1.1,0.8-1.2,1.3C157.1,292.4,156.8,295.5,156.4,298.5z"/>
	<path class="st1" d="M172.1,299.2l0.7-0.7c-0.3-3-0.6-6-1-9c-0.1-0.5-0.8-0.9-1.2-1.4c-0.4,0.6-1.1,1.2-1,1.7
		c0.2,2.5,0.5,5.2,0.9,7.6C170.5,298.1,171.5,298.6,172.1,299.2z"/>
	<path class="st1" d="M159,27.7c2.3,3.4,9.5,3.3,11.3,0H159z"/>
	<path class="st1" d="M173.3,15.4c0.1-3.3-1-5.4-2.9-5.7c-2.1-0.4-4,1.2-4.7,4.6C168.5,12.5,170.9,13,173.3,15.4z"/>
	<path class="st1" d="M181.9,89.2c0.3,0.1,0.6,0.3,0.9,0.4c1.4-2.7,2.8-5.6,4.4-8.3c-0.3-0.1-0.5-0.2-0.7-0.4
		C181,84.7,180.7,85.2,181.9,89.2z"/>
	<path class="st1" d="M163.3,14.2c-0.5-3.1-2.2-4.7-4.4-4.4c-2,0.3-3.1,2.1-2.9,5.3C158.2,13.4,160.5,12.5,163.3,14.2z"/>
	<path class="st1" d="M142.3,80.5c0.8,3.8,2,6.7,4.8,9C148.6,85.6,148.1,84.7,142.3,80.5z"/>
	<path class="st1" d="M232.3,156.6l-0.6,0.9c1.1,2.5,2.1,5.1,3.3,7.5c0.3,0.6,1.1,0.9,1.6,1.4c0.2-0.7,0.3-1.5,0.2-2.3
		c-0.8-2.1-1.8-4.3-2.8-6.3C233.7,157.3,232.8,157.1,232.3,156.6L232.3,156.6z"/>
	<path class="st1" d="M96.6,156.4c-0.3,0-0.5,0.1-0.8,0.1c-1.2,2.6-2.4,5.3-3.5,8c-0.2,0.5,0.2,1.2,0.3,1.8c0.5-0.4,1.2-0.6,1.5-1.1
		c1.1-2.2,2.1-4.5,3-6.8C97.3,158,96.8,157.2,96.6,156.4z"/>
	<path class="st1" d="M236.6,149c1.4,1,2.9,1.9,4.5,2.6c0.5,0.2,1.2-0.2,1.9-0.3c-0.1-0.6-0.1-1.5-0.4-1.8c-0.8-0.7-1.7-1.3-2.6-1.9
		C238.2,146.3,237.2,146.6,236.6,149z"/>
	<path class="st1" d="M166.1,15.4c0.7,2.2,3.7,4.1,5.9,3.3c0.8-0.2,1.2-1.5,2.1-2.7C170.8,15.7,168.6,15.5,166.1,15.4z"/>
	<path class="st1" d="M159,26h11.5C167.8,23.3,161.3,23.3,159,26z"/>
	<path class="st1" d="M122.9,104.9c4.4-1.5,7.8-4.9,9.2-9.3c0.3,0.3,0.6,0.7,0.9,1C129.7,99.5,126.3,102.3,122.9,104.9z"/>
	<path class="st1" d="M163.3,15.4c-2.5,0.2-4.9,0.4-7.8,0.6c0.5,1,0.6,2.2,1.3,2.5C158.7,19.6,162.3,17.7,163.3,15.4z"/>
	<path class="st1" d="M205.9,105.4l0.8-0.8c-3.7-2.8-7.4-5.7-11.1-8.5l1-1C198.1,99.7,201.5,103.4,205.9,105.4z"/>
	<path class="st1" d="M230.6,166.8c0.4-0.1,0.7-0.2,1.1-0.2c0.4-3-1.5-5.7-2.3-8.5c-0.1-0.3-1-0.4-2.1-0.7
		C228.4,160.8,229.5,163.8,230.6,166.8z"/>
	<path class="st1" d="M240.9,163.7c0.4-0.2,0.9-0.5,1.3-0.7c-1.2-2.9-2.8-5.6-4.7-8c-0.1-0.2-1,0.3-1.7,0.5
		C237.7,158.5,239.3,161.1,240.9,163.7L240.9,163.7z"/>
	<path class="st1" d="M97.6,166.7c0.3,0.1,0.7,0.1,1,0.2c0.9-2.8,1.9-5.7,2.8-8.5c0-0.2-0.6-0.8-0.8-0.7c-0.4,0.2-0.8,0.5-1.1,0.9
		c-0.8,2.1-1.5,4.2-2.1,6.3C97.4,165.5,97.4,166.1,97.6,166.7z"/>
	<path class="st1" d="M221.5,151.9c0.4-0.1,0.8-0.1,1.3-0.2c-0.1-2.3-0.2-4.7-0.5-7c0-0.4-0.7-0.8-1-1.2c-0.3,0.4-1,0.9-1,1.3
		C220.7,147.1,221.1,149.6,221.5,151.9L221.5,151.9z"/>
	<path class="st1" d="M172,29.9c-3.9,0.2-5,2.8-6.4,5.7C169.2,35,170.6,32.7,172,29.9z"/>
	<path class="st1" d="M175.2,16.4c2.2-4.2,2-7.7-0.2-9.8C173.2,9.8,175.6,12.7,175.2,16.4z"/>
	<path class="st1" d="M175.9,299c-0.6-3.5-0.4-7-2.4-9.7c0,2.9,0.3,5.8,0.8,8.7C174.3,298.4,175.3,298.7,175.9,299z"/>
	<path class="st0" d="M191.6,146.5c0-5.5-0.3-11-1.9-16.2c-0.3,0-0.6,0.1-0.9,0.1C189.7,135.9,190.6,141.2,191.6,146.5L191.6,146.5z
		"/>
	<path class="st1" d="M106.9,143.1c-0.2,3.2-0.3,5.9-0.4,8.5C109.5,147.8,109.7,144.9,106.9,143.1z"/>
	<path class="st1" d="M178.2,140.4c-3,1.8-3.1,4.1-0.2,6.4C179.3,144.6,180.2,142.6,178.2,140.4z"/>
	<path class="st1" d="M154.3,6.4c-2.3,2.2-2.4,4.7-0.6,9.6C154.1,12.7,155.6,9.8,154.3,6.4z"/>
	<path class="st1" d="M152.8,298.9c2.2-0.4,3.5-5.5,3-9.6c-0.2-0.1-0.5-0.1-0.7-0.2C154.4,292.1,153.6,295.4,152.8,298.9
		L152.8,298.9z"/>
	<path class="st1" d="M163.2,35.5c-1.2-4.2-2.2-5.1-5.8-5.5C158.6,32.8,160,35,163.2,35.5z"/>
	<path class="st1" d="M150.9,140.4c-1.6,2.3-1,4.4,0.6,6.5C154.1,144,153.8,141.9,150.9,140.4z"/>
	<path class="st1" d="M175.6,23c-1.2,3.2-2.2,6.2-3.3,9.1C175.8,29.8,177.6,25.3,175.6,23z"/>
	<path class="st0" d="M137.3,145.4c0.2,0,0.4,0,0.6,0.1c0.8-5,1.7-9.8,2.5-14.8c-0.4-0.1-0.8-0.1-1.2-0.2
		C138.5,135.4,137.9,140.3,137.3,145.4z"/>
	<path class="st1" d="M156.9,32c-0.9-2.8-1.7-5.2-2.5-7.5c-0.2-0.5-0.5-0.9-0.9-1.3c-0.2,0.5-0.7,1-0.7,1.4
		C152.7,27.6,154.3,30.5,156.9,32z"/>
	<path class="st1" d="M162.3,289.1h-0.9c-0.3,2.8-0.6,5.6-0.8,8.4c0,0.4,0.6,0.8,1,1.2c0.2-0.4,0.7-0.8,0.7-1.2L162.3,289.1z"/>
	<path class="st1" d="M167.9,289.1h-1v8.6c0,0.3,0.6,0.7,1,0.9c0.1,0.1,0.8-0.5,0.8-0.7C168.4,295.1,168.2,292.1,167.9,289.1z"/>
	<path class="st1" d="M143,86.6c-1.2-2-2.2-3.7-3.4-5.7C138.1,85,138.9,86.3,143,86.6z"/>
	<path class="st1" d="M186.4,86.6c4.1-0.1,4.9-1.7,3.1-5.6C188.4,82.9,187.5,84.6,186.4,86.6z"/>
	<path class="st1" d="M171.8,26c0.9-1.1,1.8-2.2,2.5-3.4c0.2-0.4,0.2-1.3-0.1-1.5c-0.3-0.2-1.4-0.4-1.5-0.2
		C171.7,22.3,170.1,23.8,171.8,26z"/>
	<path class="st1" d="M102.5,164.9c0.4,0.1,0.8,0.2,1.3,0.3c0.7-2.2,1.4-4.4,2-6.6c0.1-0.2-0.3-0.8-0.4-0.8c-0.4,0-0.7,0.1-1,0.4
		C103.7,160.3,103.1,162.6,102.5,164.9L102.5,164.9z"/>
	<path class="st1" d="M225.5,165.2c0.3-0.1,0.5-0.1,0.8-0.2c0.5-2.4-0.9-6.5-3.1-7.6C224,160.3,224.8,162.7,225.5,165.2z"/>
	<path class="st1" d="M153.7,226.7c0.8-2.5,1.3-4.4,1.8-6.2c-1.3,0.4-2.3,0.7-3.5,1C152.6,223.1,153,224.5,153.7,226.7z"/>
	<path class="st1" d="M157.4,26c2-1.8,0.3-3.2-0.3-4.6c-0.2-0.3-1.1-0.3-1.7-0.5c-0.1,0.6-0.5,1.3-0.3,1.7
		C155.7,23.8,156.5,24.9,157.4,26z"/>
	<path class="st1" d="M174.6,50.2c-0.7-1.8-1.1-3-1.7-4.6c-0.8,1.7-1.4,3.2-2.3,5.3C171.9,50.6,173.2,50.4,174.6,50.2z"/>
	<path class="st1" d="M175.5,226.7c0.6-1.9,1.1-3.5,1.6-5.3c-1.2-0.3-2.3-0.6-3.4-0.9C174.3,222.6,174.9,224.5,175.5,226.7z"/>
	<path class="st1" d="M159.3,23.5c2.4-0.7,2.1-2.3,1.6-4.3c-1,0.3-2,0.6-3.1,0.9C158.2,21.3,158.7,22.4,159.3,23.5z"/>
	<path class="st1" d="M159,51c-1-2.1-1.8-3.5-2.7-5.3c-0.6,1.7-1,2.9-1.5,4.5C156.2,50.4,157.6,50.6,159,51z"/>
	<path class="st1" d="M171.7,20.3c-1.1-0.3-2.2-0.6-3.2-0.9c-0.5,3.1-0.5,3.1,1.6,4.1C170.5,22.4,171,21.3,171.7,20.3z"/>
	<path class="st1" d="M175.9,291.1c1.2,6.2,2.2,7.7,4.2,6.7C178.8,295.6,177.3,293.4,175.9,291.1z"/>
	<path class="st1" d="M153.3,292.5l-0.6-0.3c-1.2,1.9-2.5,4-3.8,5.9c0.2,0.2,0.5,0.3,0.7,0.5C152.6,297.6,152,294.5,153.3,292.5z"/>
	<path class="st1" d="M179.7,82c0.3,0.4,0.6,0.8,1,1.1c1.2-1.1,2.4-2.3,3.8-3.4c-0.2-0.2-0.3-0.4-0.5-0.5
		C182.4,80.1,181,81.1,179.7,82z"/>
	<ellipse class="st1" cx="160.5" cy="302.8" rx="1.6" ry="2.3"/>
	<ellipse class="st1" cx="168.4" cy="302.8" rx="1.6" ry="2.3"/>
	<path class="st1" d="M174.1,304.2c-0.3,0.2-0.7,0.1-1-0.2c0,0,0-0.1,0-0.1l-0.7-1.2c-0.2-0.4,0-0.8,0.4-1c0.3-0.2,0.7,0,0.9,0.3
		l0.7,1.2C174.6,303.5,174.5,304,174.1,304.2C174.1,304.2,174.1,304.2,174.1,304.2z"/>
	<path class="st1" d="M177.5,304.2c-0.3,0.2-0.7,0.1-1-0.2c0,0,0-0.1,0-0.1l-0.7-1.2c-0.2-0.4,0-0.8,0.4-1c0.3-0.2,0.7,0,0.9,0.3
		l0.7,1.2C178,303.5,177.9,304,177.5,304.2C177.5,304.2,177.5,304.2,177.5,304.2z"/>
	<path class="st1" d="M180,303.3c-0.3,0.2-0.7,0.1-1-0.2c0,0,0-0.1,0-0.1l-0.7-1.2c-0.2-0.3-0.1-0.8,0.2-1c0.3-0.2,0.8-0.1,1,0.2
		c0,0,0,0.1,0,0.1l0.7,1.2c0.2,0.3,0.1,0.7-0.2,0.9C180.1,303.3,180,303.3,180,303.3z"/>
	<path class="st1" d="M182.3,302.7c-0.3,0.2-0.7,0.1-1-0.2c0,0,0-0.1,0-0.1l-0.7-1.2c-0.2-0.4,0-0.8,0.4-1c0.3-0.2,0.7,0,0.9,0.3
		l0.7,1.2C182.7,302.1,182.6,302.5,182.3,302.7z"/>
	<path class="st1" d="M154.4,304.7c0.3,0.2,0.7,0.1,1-0.2c0,0,0-0.1,0-0.1l0.7-1.2c0.2-0.3,0.1-0.8-0.2-1c-0.3-0.2-0.8-0.1-1,0.2
		c0,0,0,0.1,0,0.1l-0.7,1.2C154,304.1,154.1,304.5,154.4,304.7z"/>
	<path class="st1" d="M151.6,304.2c0.3,0.2,0.7,0.1,1-0.2c0,0,0-0.1,0-0.1l0.7-1.2c0.2-0.3,0.1-0.8-0.2-1c-0.3-0.2-0.8-0.1-1,0.2
		c0,0,0,0.1,0,0.1l-0.7,1.2C151.1,303.5,151.3,303.8,151.6,304.2z"/>
	<path class="st1" d="M149.1,303.3c0.3,0.2,0.7,0.1,1-0.2c0,0,0-0.1,0-0.1l0.7-1.2c0.2-0.3,0.1-0.8-0.2-1c-0.3-0.2-0.8-0.1-1,0.2
		c0,0,0,0.1,0,0.1l-0.7,1.2C148.6,302.6,148.7,303.1,149.1,303.3C149,303.3,149.1,303.3,149.1,303.3z"/>
	<path class="st1" d="M146.9,302.6c0.3,0.2,0.7,0.1,1-0.2c0,0,0-0.1,0-0.1l0.7-1.2c0.2-0.3,0.1-0.8-0.2-1c-0.3-0.2-0.8-0.1-1,0.2
		c0,0,0,0.1,0,0.1l-0.7,1.2C146.4,301.8,146.5,302.3,146.9,302.6z"/>
</g>
<g>
	<path class="st1" d="M334.6,135.1c0.2-0.7,0.4-1.5,0.4-2.3c-0.4-12.4-0.7-24.6-1.3-37c-0.2-3.3-0.2-7-2.7-9.8
		c-4.3-4.9-9-8.8-15.7-9.7c-3.1-0.4-6.4-1-10-1.6c0.5,2,0.7,3.2,1.1,4.4c4.5,12.9,8.9,25.8,13.6,38.5c0.8,2.1,2,3.9,3.5,5.6
		c2.6,3.2,5.6,6.3,8.4,9.3C332.8,133.4,333.7,134.2,334.6,135.1z"/>
	<path class="st1" d="M368.1,75.1c-1-0.1-2-0.1-3,0c-4.3,0.9-8.6,1.5-12.8,2.9c-5,1.7-8.2,5.8-11.3,9.9c-0.6,0.9-0.9,1.9-1,3
		c-0.7,13.5-1.3,27-1.9,40.5c0,1.1,0.2,2.2,0.3,3.3c0.5,0.3,0.9,0.6,1.3,1c0.3-0.9,0.7-1.8,1.2-2.6c2.4-2.9,5.1-5.7,7.5-8.7
		c1.8-2.2,3.9-4.6,4.9-7.1c4-10.1,7.5-20.4,11.2-30.6C365.7,82.8,366.8,79.2,368.1,75.1z"/>
	<path class="st0" d="M313.4,167.6c2.9-4.6,7.3-6.7,11.6-8.8c0.7-0.3,1.4-0.7,2.1-1.1c3.2-2,4.1-4.1,3.3-7.9
		c-0.8-4.7-1.7-9.2-2.3-14c-0.7-5.1-1.3-5.6-6-3.3c-0.1,0-0.1,0.1-0.2,0.1c-9.1,4.5-13.4,14.7-10.7,26.1
		C311.9,161.4,312.6,163.9,313.4,167.6z"/>
	<path class="st0" d="M360.4,166.6c0.7-4.1,1.9-8.6,2.2-13.2c0.8-10.1-4.3-18.5-13.1-21.7c-3-1.1-3.8-0.6-4.2,2.5l-2.1,13.5
		c-1.2,6.8-0.5,8,5.7,11.5C352.8,161.2,356.4,163.9,360.4,166.6z"/>
	<path class="st1" d="M306.7,51.9c0,0.2-0.1,0.5-0.1,0.7c6.6,0,10.1,3.8,12.6,9.3c2.8,6.5,6.3,12.7,11.7,17.4
		c0.8,0.7,1.7,1.3,2.9,2.2c0.3-0.8,0.5-1.6,0.6-2.5c-0.1-6.3-0.3-12.5-0.6-18.8c0.1-2.9-1.9-5.5-4.8-6.1c-5.1-1.3-10.1-2.7-15.3-3.7
		C311.7,50.6,309.2,51.6,306.7,51.9z"/>
	<path class="st1" d="M366.8,52.5c-0.4-0.3-0.9-0.5-1.4-0.7c-7.8-2.2-14.9,0.5-22,3c-2.4,0.7-4,3-3.9,5.5
		c-0.2,6.3-0.4,12.5-0.5,18.8c0.1,0.9,0.2,1.7,0.4,2.6c0.8-0.4,1.6-1,2.3-1.6c2.7-2.7,5.2-5.7,7.4-8.8c2.4-3.9,4.5-7.9,6.4-12.1
		c1.4-3.2,4.2-5.4,7.6-6.1C364.4,53,365.6,52.8,366.8,52.5z"/>
	<path class="st0" d="M344.8,221.7c0.3,0,0.7,0,1,0.1c0.8-2.1,1.7-4.3,2.4-6.4c1.7-4.8,3.8-9.5,5-14.4c2.9-11.6,1.1-23.1-0.3-34.6
		c-0.4-3.1-2.5-4.9-6-5.2c-1.3,8.3,0.5,16.5,1.2,24.7c0.6,6.8,0.7,13.7,0.2,20.5c-0.3,3.7-2.3,7.1-3.3,10.6
		C344.8,218.5,344.8,220.1,344.8,221.7L344.8,221.7z"/>
	<path class="st0" d="M326.3,160.9c-4.1,0.6-5.9,2.3-6.2,6.1c-0.5,5.2-1.3,10.3-1.4,15.5c-0.1,5.4-0.3,10.8,0.9,16
		c1.9,7.9,5,15.5,7.6,23.6c2.6-2.3,1.4-4.6,0.5-6.4c-4.8-10.1-4.2-20.7-2.5-31.3C326.5,176.7,326.9,168.8,326.3,160.9L326.3,160.9z"
		/>
	<path class="st0" d="M329.4,257.8c5.2-6.1-1.5-42.6-7.7-45.1c0,5.2-0.1,10.5,0,15.8c0.2,6.3,0.7,12.5,1,18.8
		C323,252.2,325.8,255.2,329.4,257.8z"/>
	<path class="st0" d="M352.3,212.2c-0.3-0.1-0.5-0.2-0.8-0.3c-0.9,1.3-1.6,2.7-2.2,4.1c-1.1,2.9-1.9,6-2.9,8.8
		c-2.7,7.4-4.4,15.1-4.8,23c-0.2,3.4-0.1,7.1,2.4,10.2c3.2-2.8,6.4-5.3,6.6-9.9c0.3-8.6,0.9-17.3,1.3-26
		C352,218.8,352.1,215.6,352.3,212.2L352.3,212.2z"/>
	<path class="st0" d="M356.2,209.5c-2.4,0.8-2.7,2.5-2.7,4.2c-0.1,4.9-0.3,9.6-0.1,14.5c0.2,6.9,0.4,13.8-1.5,20.5
		c-0.9,3.2-0.2,5.3,2.7,6.8c0.2-0.1,0.4-0.2,0.6-0.4c0.3-0.2,0.5-0.5,0.7-0.8c2.9-5.7,5.1-11.7,4.2-18.3c-1-7.2-2.1-14.3-3.1-21.4
		C356.6,212.9,356.5,211.2,356.2,209.5L356.2,209.5z"/>
	<path class="st0" d="M318.5,255.6c3.9-2.7,3.4-2.7,2.9-6.7c-0.8-6.2-1.2-12.4-1.5-18.6c-0.3-5.9-0.2-11.8-0.4-17.6
		c0-1.1-1.1-2.1-1.6-3.2c-0.3,0.1-0.6,0.2-0.9,0.4c-0.5,3.9-1,7.7-1.5,11.6c-0.8,6.3-1.9,12.5-2.2,18.8
		C313,245.9,315.3,250.9,318.5,255.6z"/>
	<path class="st1" d="M325.3,299.2h0.9c0.1-0.9,0.2-1.9,0.3-2.8c0.7-8.2,1.2-16.3,2-24.5c0.5-5.6,1.8-11.4-3.1-15.7
		c-0.9-0.8-2.7-1.6-3.5-1.3c-1.5,0.7-3.3,1.8-2.6,4.4c0.8,2.8,1.5,5.7,1.9,8.6c1.3,9.7,2.5,19.5,3.8,29.2
		C325.1,297.8,325.2,298.5,325.3,299.2L325.3,299.2z"/>
	<path class="st1" d="M347.2,299.1h0.9c0.1-0.8,0.3-1.5,0.4-2.3c0.9-8,1.6-15.9,2.7-23.9c0.6-4.8,1.8-9.4,2.8-14.1
		c0.5-2.3-1.2-3.4-2.6-4.2c-0.7-0.4-2.4,0.5-3.3,1.2c-4.2,3.5-4.1,8.3-3.7,13.3c0.9,9.1,1.5,18.3,2.3,27.4
		C346.9,297.4,347.1,298.3,347.2,299.1z"/>
	<path class="st0" d="M358.9,218.3h0.4c0.1-2.4,0.3-5,0.4-7.4c0.2-3.3-0.1-6.9,0.8-10c2.5-8.6,2.1-17,0.4-25.7
		c-0.8-4.1-2.1-7.7-5.9-9.4c0.5,5.4,1.4,11.1,1.5,16.7c0.1,6.2-1.1,12.5-0.7,18.7C356.1,206.9,357.8,212.6,358.9,218.3L358.9,218.3z
		"/>
	<path class="st0" d="M314.1,218.8c1-4.6,1.9-8.6,2.6-12.7c0.4-2.5,0.5-5.1,0.4-7.6c-0.1-5-0.7-9.9-0.5-14.9
		c0.2-5.9,1-11.7,1.6-18.4c-1.8,2-4,3.4-4.5,5.4c-2.3,8.6-4.3,17.3-1.8,26.4c1.5,5.1,2,10.3,1.7,15.6
		C313.6,214.6,313.8,216.7,314.1,218.8z"/>
	<path class="st1" d="M339.7,25.7c-0.4,0-0.8-0.1-1.2-0.1c-0.3,1-1,2.1-0.9,3.1c0.6,7.1,1.3,14.2,2,21.3c0.3,3.3,0.7,3.8,4,2.7
		c4.2-1.2,8.2-2.5,12.1-3.8c-2.3-1.8-5.1-3.9-7.8-6C342.2,38.7,337.9,33.7,339.7,25.7z"/>
	<path class="st1" d="M317.8,49.2c3.7,1.1,7.6,2.3,11.6,3.5c3.5,1.1,4,0.8,4.3-2.7c0.1-0.7,0.2-1.4,0.3-2.1
		c1.3-6.4,2.3-12.8,1.8-19.4c-0.3-1-0.6-2-1.1-2.9c-0.3,0.1-0.5,0.2-0.8,0.3c0.1,0.9,0.3,1.8,0.4,2.8c0.3,4.5-1.7,8.8-5.2,11.6
		C325.1,43.3,321.2,46.3,317.8,49.2z"/>
	<path class="st0" d="M312.2,56.8c-3.9-2.6-8.6-2.9-11.5-0.8c-4.8,3.7-6.8,13.4-3.5,18.5C302.3,68.6,307.2,62.6,312.2,56.8z"/>
	<path class="st0" d="M361.1,56.8c5.1,6,10,11.9,15,17.7c0.3-0.1,0.7-0.2,1-0.3c0.1-2.9,0.7-6,0.3-8.9
		C376.3,55.5,368.8,51.9,361.1,56.8z"/>
	<path class="st0" d="M369.9,70.2c-0.4,4.3-0.8,8.1-1.1,12.1c-0.3,3.2-0.4,6.3-0.3,9.5c0.6,4.4,2.5,8.5,5.5,11.8
		c0.4-5.9,0.5-12,1.1-17.9C375.9,79.8,373.6,74.9,369.9,70.2z"/>
	<path class="st0" d="M298.6,103.9c3.8-3.7,6.3-8.1,6.3-13.4c-0.1-6.7-0.9-13.4-1.4-20.2c-4.3,4.4-6.2,10.6-5.2,16.7
		C299,92.7,299.9,98.2,298.6,103.9z"/>
	<path class="st0" d="M321,74.9c-2-4.9-3.7-8.8-5.5-12.9c-0.8-1.7-2.3-2.5-3.9-1.1c-3.4,2.8-5.7,6.8-6.5,11.1
		C310.4,73.1,315.3,73.9,321,74.9z"/>
	<path class="st0" d="M352.3,74.9c5.7-1,10.6-1.9,15.7-2.9c-0.6-4.3-2.8-7.3-5.4-10.1c-2.1-2.3-3.9-2.1-5.2,0.7
		C355.7,66.4,354.3,70.2,352.3,74.9z"/>
	<path class="st0" d="M297,109.5c-0.3-0.2-0.5-0.4-0.8-0.6c-2.9,8.6-5.9,17.2-8.8,25.9c6.5-7.7,11.5-16.7,14.5-26.3
		C300,108.8,298.5,109.2,297,109.5z"/>
	<path class="st0" d="M371.6,108.5c1.1,6.4,9.4,21.9,13.9,25.8c-1.2-4.3-2.3-8.5-3.8-12.7s-3.2-8.4-5-12.6l-0.6,0.6
		C374.6,109.2,373,108.8,371.6,108.5z"/>
	<path class="st1" d="M333,157.5c-3.7,0.3-4.2,0.9-4.2,4c0.1,3.3-0.2,6.6,0,9.9c0.3,5.9,0.8,11.7,1.2,17.5h0.8
		C332.9,178.4,332.9,167.9,333,157.5z"/>
	<path class="st1" d="M342.9,188.9c0.2-1.4,0.4-2.5,0.6-3.8c0.4-3.9,1-7.6,1.1-11.5c0.1-4.2-0.4-8.4-0.2-12.6c0.2-2.9-1.1-3.8-3.7-4
		C339.7,163,341.1,184.5,342.9,188.9L342.9,188.9z"/>
	<path class="st1" d="M362.7,141.9c-1-4.5-1.7-9-2.9-13.5c-0.8-3.1-2.6-4.2-5.5-4.1c-2.8,0.1-5.3,1.9-6.1,4.6
		C358.8,135.1,358.8,135.1,362.7,141.9z"/>
	<path class="st1" d="M310.8,141.5c0.2,0.1,0.5,0.2,0.7,0.3c1.7-7.4,7.6-10.4,13.9-12.8c-1.8-3.4-4.5-5-7.5-4.7s-4.3,2.7-4.9,5.4
		C312.2,133.6,311.5,137.7,310.8,141.5z"/>
	<path class="st1" d="M343.8,215.2c3.9-7.1,4.3-14.8,1.7-31.4C343.3,190.9,342.2,211.2,343.8,215.2z"/>
	<path class="st1" d="M329.5,215.7c1.5-6,0.3-25.6-1.8-31.2c-0.4,3.8-0.6,7.5-1.1,11.2C325.6,202.5,326.1,209.1,329.5,215.7z"/>
	<path class="st0" d="M390.8,140.1c0.5-6.1-4.9-27.2-7.7-31C383.7,119.7,385.3,130.3,390.8,140.1z"/>
	<path class="st0" d="M289.7,109.9c-3.8,9.8-6.9,19.8-7.8,31.1C287.2,131.5,289.9,120.8,289.7,109.9z"/>
	<path class="st0" d="M393.7,141.2c1.8-0.7,4.2-0.5,3.3-3.2c-2.1-7.3-4.4-14.7-6.8-22c-1.3-3.7-2.8-7.2-4.5-10.7
		c-0.2,0.1-0.5,0.2-0.7,0.3C389.8,116.9,392.7,128.9,393.7,141.2z"/>
	<path class="st0" d="M287.5,106.9c-0.3-0.1-0.5-0.2-0.8-0.3c-1.2,3-2.6,6-3.7,9c-2.2,7.1-4.3,14.3-6.5,21.4c-0.9,2.8-0.1,4,3.1,3.7
		C280.7,129.2,283.4,117.8,287.5,106.9L287.5,106.9z"/>
	<path class="st0" d="M333.9,152.7c0.4-0.1,0.7-0.2,1.1-0.2c0-1.8,0.1-3.5,0.4-5.3c1-5.1-0.1-9.1-6.2-11.4
		C330.9,141.7,332.4,147.2,333.9,152.7z"/>
	<path class="st0" d="M338.4,152.4c3.1-4.8,4.8-10.3,4.9-16c-4.4,1.6-6.1,4.5-5.5,8.7C338.2,147.5,338.2,149.8,338.4,152.4z"/>
	<path class="st1" d="M350.5,298.7l1,0.3c0.3-0.8,0.5-1.6,0.7-2.4c0.1-1.4-0.2-2.8,0-4.3c0.5-3.9,1.5-7.7,1.8-11.6
		c0.3-3.7,0.1-7.3,0.1-11h-1.3C352.2,279.4,351.3,289.1,350.5,298.7z"/>
	<path class="st1" d="M322,299.2c0-5.4,0.3-10.2-0.1-15.1s-1.4-9.4-2.1-14.1c-0.3,0-0.5,0.1-0.8,0.1c0,3.3-0.2,6.6,0.1,9.9
		c0.2,3.4,0.7,6.7,1.7,10C321.7,292.8,319.6,296.4,322,299.2z"/>
	<path class="st0" d="M319.4,122.2c-1.5-4.7-3-9.2-4.6-13.7c-0.1,0.1-0.2,0.1-0.3,0.2c-0.2,5-0.5,10-0.7,15.2
		C315.7,123.2,317.3,122.8,319.4,122.2z"/>
	<path class="st0" d="M359.7,123.7c-0.4-5.1-0.7-9.6-1-14.2c-0.2,0-0.4,0-0.6-0.1c-1.3,4.3-2.6,8.5-4,12.9
		C356.3,122.9,357.8,123.3,359.7,123.7z"/>
	<path class="st1" d="M334.5,9.6c-3,1.7-6,3.1-8.7,5c-0.9,0.6-0.7,2.3,1.1,2.3c1.4-0.1,2.9-0.3,4.3-0.6
		C335,15.4,335.7,14.2,334.5,9.6z"/>
	<path class="st1" d="M338.8,9.8c-1,4.6-0.4,5.7,3.4,6.6c0.7,0.3,1.5,0.4,2.3,0.4c1.1-0.1,2.3-0.4,3.4-0.7c-0.7-0.9-1.5-1.8-2.4-2.7
		c-0.9-0.8-2-1.4-3.1-1.9C341.2,10.8,340,10.2,338.8,9.8z"/>
	<path class="st1" d="M309.3,178.5c2.8-5.9,3.8-11.7,0-18.2V178.5z"/>
	<path class="st1" d="M362.9,179.3h0.9v-18.2c-1.2,1.9-2.3,4.1-2.2,6.1C361.7,171.3,362.5,175.4,362.9,179.3L362.9,179.3z"/>
	<path class="st1" d="M328.9,33.6c4.4-4.3,4.4-7.5,0-12.3V33.6z"/>
	<path class="st1" d="M344.4,20.9c-4.4,5.7-4.5,9.3-0.4,13.1C345.4,29.6,344.4,25.5,344.4,20.9z"/>
	<path class="st0" d="M292.1,98.9c1.5-7.2,3-14.3,4.8-22.2C292.4,83.9,291.9,91.4,292.1,98.9z"/>
	<path class="st0" d="M376.4,76.7c1.6,7.8,3.3,15.4,5,23C381.6,91.8,381,83.8,376.4,76.7z"/>
	<path class="st0" d="M377.3,86.4h-0.8c0,4.2-0.1,8.3,0.1,12.5c0,0.6,0.8,1.2,1.2,1.9c0.5-0.7,1.4-1.4,1.3-2
		C378.5,94.5,377.9,90.4,377.3,86.4z"/>
	<path class="st0" d="M297,86.4h-1c-0.6,4.1-1.2,8.2-1.6,12.3c-0.1,0.7,0.9,1.4,1.4,2.1c0.5-0.6,0.9-1.3,1.1-2
		c0.2-2,0.1-4.1,0.1-6.2V86.4z"/>
	<path class="st1" d="M401.9,157.1c-0.2,0.3-0.4,0.6-0.6,0.8c0.9,2.5,1.8,5.2,2.9,7.7c0.2,0.6,1,1,1.5,1.5c0.1-0.8,0.5-1.6,0.3-2.3
		c-0.6-2.2-1.4-4.3-2.3-6.3C403.5,157.9,402.6,157.7,401.9,157.1z"/>
	<path class="st1" d="M266.9,166.9c0.4,0.1,0.7,0.3,1.1,0.4c2.1-2.7,2.7-6.1,3.9-9.2c0-0.1-0.6-0.7-0.9-0.7
		c-0.5,0.1-0.9,0.4-1.2,0.8c-0.7,1.8-1.4,3.7-2,5.5C267.3,164.7,267,165.7,266.9,166.9z"/>
	<path class="st1" d="M292.5,114.3c1.5-3.8,2.8-7.2,4.5-11.2C293.1,105.3,291.2,109.9,292.5,114.3z"/>
	<path class="st1" d="M380.5,113.7c1.1-4.4-0.4-8.4-4.1-9.9C377.9,107.2,379.2,110.6,380.5,113.7z"/>
	<path class="st1" d="M408.5,147.3c-0.5,0.5-1.1,0.8-1.4,1.3c-0.2,0.4-0.2,1,0,1.4c1.3,1,2.7,2,4.2,2.8c0.5,0.1,1,0,1.4-0.3
		c0.3-0.4,0.3-0.9,0.1-1.4C411.5,149.6,410.1,148.4,408.5,147.3z"/>
	<path class="st1" d="M264.8,147.3c-1.3,1-2.7,1.8-4.1,2.9c-0.4,0.4-0.3,1.3-0.4,2c0.7,0.1,1.5,0.4,2.1,0.1c0.9-0.3,1.5-1.2,2.4-1.6
		C267,149.7,266.7,148.7,264.8,147.3z"/>
	<path class="st1" d="M267.7,156.1c-2.4-0.3-5.7,5.1-5,8.2C264.8,161.9,266,158.9,267.7,156.1z"/>
	<path class="st1" d="M397.6,157.7c-0.2,0.1-0.3,0.3-0.5,0.4c0.7,2.6,1.3,5.3,2.1,7.8c0.1,0.4,0.9,0.6,1.3,0.9
		c0.2-0.4,0.6-0.9,0.5-1.3c-0.6-2.3-1.2-4.6-2-6.9C398.9,158.2,398.1,157.9,397.6,157.7z"/>
	<path class="st1" d="M410.9,164.3c0.2-0.2,0.5-0.4,0.7-0.6c-1.3-2.5-2.5-5.1-4-7.6c-0.2-0.3-0.9-0.3-1.3-0.4
		c-0.2,0.4-0.2,0.9-0.2,1.4c1,2.1,2.1,4.3,3.3,6.3C409.8,163.9,410.5,164,410.9,164.3L410.9,164.3z"/>
	<path class="st1" d="M271.9,166.9c1-0.1,1.5,0,1.5-0.1c0.9-2.7,1.7-5.5,2.5-8.3c0.1-0.2-0.4-0.7-0.6-0.7c-0.4,0-1,0.2-1,0.4
		C273.5,160.9,272.8,163.7,271.9,166.9L271.9,166.9z"/>
	<path class="st1" d="M404.7,151.3c0.3-2.6-2.6-7-4.4-7.4c-0.3-0.1-0.7,0-0.9,0.3c-0.1,0.4-0.1,0.8,0,1.2
		C401,147.2,402.7,148.9,404.7,151.3z"/>
	<path class="st1" d="M274.4,144.7l-0.3-0.6c-0.6,0.1-1.4,0.1-1.7,0.4c-1.6,1.8-4.9,2.7-3.7,6.7
		C270.7,148.8,272.6,146.8,274.4,144.7L274.4,144.7z"/>
	<path class="st1" d="M322.5,303.8c0.6-2.8-2.2-5.8-5.5-5.7C318.8,299.9,320.5,301.7,322.5,303.8z"/>
	<path class="st1" d="M350.5,303.2c2.9-1.3,4.9-3.5,5.1-5.8C352.2,298.8,350.2,300.9,350.5,303.2z"/>
	<path class="st1" d="M346.4,27.8c0.4,0,0.8,0,1.2-0.1c0.1-1.8,0.2-3.7,0.2-5.5c0-0.4-0.8-0.7-1.2-1.1c-0.3,0.4-1,0.9-1,1.3
		C345.8,24.2,346.1,25.9,346.4,27.8z"/>
	<path class="st1" d="M325.7,27.8h1.3c0.2-1.8,0.5-3.5,0.6-5.4c0-0.4-0.6-0.9-0.9-1.3c-0.4,0.4-1.1,0.8-1.1,1.2
		C325.5,24.1,325.6,25.9,325.7,27.8z"/>
	<path class="st1" d="M278.9,156.9c-0.6,3-1,5.5-1.5,8c0.2,0,0.5,0.1,0.7,0.1C279.8,162.7,280.4,158.5,278.9,156.9z"/>
	<path class="st1" d="M394.6,165.3c0.3-0.1,0.6-0.1,0.9-0.2c0.3-2.7-0.7-6.7-2.7-7.9C393.5,160.2,394.1,162.7,394.6,165.3
		L394.6,165.3z"/>
	<path class="st1" d="M338.5,2.5c-0.3,0.4-0.5,0.9-0.8,1.3c2.4,1,4.9,1.9,7.3,2.9c0.1-0.3,0.3-0.5,0.4-0.8
		C343.1,4.9,340.8,3.7,338.5,2.5z"/>
	<path class="st1" d="M328.1,6.9c2.5-1,5-2,7.9-3.2C332.8,2.7,330.2,3.9,328.1,6.9z"/>
	<path class="st1" d="M344.7,300.4c0.3-0.2,0.7-0.3,1-0.5c-0.8-1.7-1.5-3.4-2.3-5.2c-0.4,0.2-0.7,0.3-1.1,0.5
		C340.8,297.9,344.5,298.4,344.7,300.4z"/>
	<path class="st1" d="M327.7,299.9c0.2,0.1,0.5,0.2,0.7,0.3c3.4-3.9,3.4-3.9,1.4-5.4C329,296.6,328.3,298.2,327.7,299.9z"/>
	<path class="st1" d="M271.2,151.4l0.7,2l3.3-5.9L271.2,151.4z"/>
	<path class="st1" d="M274.4,153.7h1.6l0.9-5.5L274.4,153.7z"/>
	<path class="st1" d="M278.1,153.7h1.6l0.5-6L278.1,153.7z"/>
	<path class="st1" d="M393.1,148.2l0.7,5.5h1.5L393.1,148.2z"/>
	<path class="st1" d="M396.6,148.1l1.1,5.6h1.4v-1.3L396.6,148.1z"/>
	<path class="st1" d="M399.1,146.9l2.4,6.4l0.9-1.5L399.1,146.9z"/>
	<path class="st1" d="M325.8,302.9c-0.7,0-1.3-0.6-1.3-1.3c0-0.7,0.6-1.3,1.3-1.3c0.7,0,1.3,0.6,1.3,1.3l0,0
		C327.1,302.3,326.5,302.9,325.8,302.9z"/>
	<path class="st1" d="M347.8,302.9c-0.7,0-1.3-0.6-1.3-1.3c0-0.7,0.6-1.3,1.3-1.3c0.7,0,1.3,0.6,1.3,1.3l0,0
		C349.1,302.3,348.5,302.9,347.8,302.9z"/>
</g>
</svg>
