<?xml version="1.0" encoding="utf-8"?>
<!-- Generator: Adobe Illustrator 21.1.0, SVG Export Plug-In . SVG Version: 6.00 Build 0)  -->
<svg version="1.1" id="Layer_1" xmlns="http://www.w3.org/2000/svg" x="0px" y="0px" viewBox="0 0 11.4 40.1" style="enable-background:new 0 0 11.4 40.1;" xml:space="preserve">

<g>
	<circle class="st0" cx="9.4" cy="2" r="2"/>
	<path class="st0" d="M9.7,6.8C9.7,6.7,9.2,7,9.2,7S8.8,7.2,8.7,7.2c0,0-0.2-0.1-0.1-0.2C8.7,6.8,8.9,6.7,9,6.6s0.5-0.4,0.4-0.5
		S9.1,6.3,8.9,6.5L8.5,6.8c0,0-0.1,0.1-0.1,0c-0.1,0,0.1-0.2,0.1-0.2l0.2-0.3c0,0,0.4-0.3,0.3-0.4S8.6,6.3,8.6,6.3S8.2,6.6,8.1,6.6
		c0,0-0.1-0.1,0-0.2C8.2,6.2,8.3,6.1,8.3,6C8.2,6,8.1,6.2,8,6.3C7.9,6.5,7.8,6.6,7.8,6.6s-0.2,0-0.2-0.1c0,0-0.1-0.1,0-0.3
		C7.7,6.1,7.8,6,7.9,5.9c0.2-0.1,0.6-0.5,0.7-0.6S8.8,5.1,8.7,5c0-0.1-0.3,0.1-0.3,0.1S8.1,5.4,8,5.5C7.8,5.6,7.7,5.7,7.5,5.6
		s0.2-0.5,0.2-0.5S7.9,4.6,8,4.4c0.1-0.2,0-0.3,0-0.3c-0.1,0-0.2,0-0.2,0.2c0,0-0.2,0.5-0.2,0.6c-0.2,0-0.2,0.2-0.3,0.3
		S7.2,5.4,7.2,5.4s-0.1,0,0-0.2s0.1-0.4,0.2-0.5c0-0.1,0.2-0.3,0.2-0.5C7.5,4,7.4,4.1,7.3,4.4C7.2,4.6,7,4.8,7,5
		c0,0.1-0.1,0.4-0.2,0.4s-0.2,0-0.2-0.2s0.1-0.5,0.1-0.7c0-0.1,0-0.2,0-0.2s-0.1,0-0.2,0.3V5c0,0,0,0.3-0.1,0.4
		c0,0.1-0.3,0.7-0.3,0.7S6,6.2,5.9,6.4c0,0.2-0.1,0.4-0.2,0.5c0,0-0.1,0.2-0.1,0.3S5.4,7.6,5.4,7.6S5.2,7.7,5.2,7.8
		c0,0-1.3,2.1-1.4,2.2s-0.5,0.8-0.5,1s0,0.4,0,0.5S3.1,12.4,3,12.6c0,0-0.1,0-0.1,0.1c0,0,0,0,0.1,0.1c0,0,0,0.3-0.1,0.3
		c0,0-0.1,0-0.1,0.1v0.1c0,0-0.1,0-0.1,0.1v0.1c0,0,0,0.1-0.1,0.2c-0.1,0-0.1,0.1-0.1,0.2c0,0,0,0.1,0.1,0.2s0.2,0.2,0.2,0.2v0.6
		l-0.3,0.4c0,0-1,0.7-1.1,0.8s-0.7,0.8-0.8,1c-0.1,0.1-0.4,0.7-0.4,1.3L0,19.9v0.7c0,0,0.3,1.4,0.3,1.5v0.2c0,0.1,0.1,0.2,0.1,0.2
		v0.1c0,0-0.1,0.1-0.1,0.2s0,0.7,0,0.7l0.2,0.8v0.1c0,0,0.2,0.5,0.2,0.7s0.1,0.3,0.1,0.3s0,0.1,0,0.2c0,0,0.1,0.3,0.1,0.4
		c0,0.2,0.1,0.3,0.1,0.3v0.3L1.1,27c0,0,0,0.1,0,0.2v0.2c0,0,0.1,0.1,0.1,0v0.1l0.1,0.2c0,0,0.1,0.2,0.1,0.3v0.1c0,0,0,0.1,0,0.2
		s0.1,0.1,0.1,0.1s0,0.1,0.1,0.1h0.5c0,0,0.3,0.7,0.3,0.8c0.1,0.1,0.2,0.6,0.2,0.6S3,31,3.1,31.1c0.1,0.2,0.2,0.3,0.2,0.3
		s0.1,0.3,0.2,0.5c0,0,0.2,0.6,0.3,0.7c0,0.1,0.4,0.3,0.4,0.7c0,0.3,0.8,2,0.8,2v0.1c0,0-0.4,0-0.4,0.1s-0.1,0.2-0.1,0.2l-0.2,0.1
		c0,0.1-0.1,0.2-0.2,0.1L4,36c0,0-0.2,0-0.3,0.1l-0.5,0.1l-0.3,0.1c0,0-0.4,0.1-0.4,0.2s0,0.3,0.1,0.3C2.7,36.9,2.8,37,3.2,37
		s0.8,0,1.1-0.1s0.4-0.1,0.4-0.1s-0.1,0.3-0.1,0.5c0,0-0.1,0.1,0,0.2c0,0-0.1,0-0.1,0.1s-0.2,0.2-0.2,0.3s-0.1,0.2-0.1,0.2
		S4,38.1,4,38.3c0,0.1-0.2,0.2-0.2,0.2s0,0.1-0.3,0.2s-0.3,0.2-0.3,0.2H3.1L2.8,39c0,0-0.4,0.2-0.4,0.3s0,0.3,0.2,0.4
		c0.2,0.2,0.7,0.4,1.1,0.3c0.5-0.1,1-0.2,1.2-0.4c0.1-0.1,0.6-0.3,0.6-0.3L6,39.1c0,0,0.1,0,0.2-0.1c0.2-0.1,0.4-0.2,0.4-0.4
		c0-0.3-0.1-0.3-0.1-0.3v-0.2c0,0-0.2-0.5-0.3-0.6v-0.1c0,0-0.1-0.2-0.1-0.4c0,0,0-0.1-0.1-0.1c0,0,0.2-0.1,0.2-0.2
		c0.1-0.1,0.1-0.2,0.1-0.2v-0.2l-0.1-0.1c0,0,0-0.3-0.1-0.4s-0.2-0.5-0.2-0.5s0.1-1.5,0-2s-0.3-0.8-0.3-0.8s0.1-0.7-0.2-1.3
		c-0.2-0.6-0.6-1.2-0.6-1.4s0-1.1-0.1-1.5c0,0,0.2,0,0.2-0.1c0,0,0-0.2-0.1-0.3c0-0.1-0.1-0.7-0.1-0.7l-0.1-0.5c0,0,0.2-0.6,0.1-0.8
		c0,0,0.1-0.3,0-0.4c0,0,0.1-1,0.1-1.1c0-0.2-0.1-0.6-0.1-0.6s0-0.7-0.3-1.1l-0.3-0.3c0,0-0.1-0.1-0.2-0.1c0,0-0.1-0.1-0.1-0.2h0.1
		C4,22.1,4.1,22,4,21.7S3.8,21.2,3.8,21c0,0,0,0,0-0.1s0-0.1,0-0.1s0.1,0,0.1-0.2c0,0,0,0,0-0.2v-0.1c0,0,0.1-0.1,0.1-0.2V20v-0.1
		v-0.2c0,0,0-0.1,0.1-0.2s0.1-0.1,0.1-0.3v-0.1V19l0.1-0.1c0-0.1,0-0.1,0-0.1c0-0.1,0-0.1,0-0.2v-0.2c0,0,0.1-0.1,0.1-0.3l0.1-0.3
		l0.1-0.1l0.2-0.2c0,0,0.1-0.1,0.2-0.3c0-0.2,0.1-0.4,0.1-0.4s0-0.1,0-0.4L5,16.2v-0.1l-0.1-0.2c0,0,0.1-0.4,0.1-0.6v-0.2h0.1
		c0.1,0,0.3-0.3,0.5-0.5S6,14,6,14v0.4v0.3c0,0,0,0.3,0.1,0.4s0.3,0.2,0.4,0.1s0.2,0,0.2,0s0.1,0,0.1-0.1c0,0,0.1,0,0.2-0.1
		s0-0.1,0-0.3c0-0.1,0-0.2-0.1-0.2v-0.1l-0.1-0.2l-0.1-0.1c-0.1,0-0.1,0.1-0.1,0.1H6.5v-0.1c0,0,0.1-0.1,0.2-0.3s0.1-0.3,0.1-0.3
		s0.1-0.7-0.2-1c0,0,0-0.1-0.1-0.1c0,0,0-0.2-0.3-0.3c0,0-0.1-0.1-0.2-0.1c0,0-0.1-0.2-0.1-0.3s0-0.1,0-0.1S6,11.5,6.2,11
		s0.4-1,0.4-1S6.9,9.5,7,9.4c0-0.3,0.3-0.8,0.4-1C7.6,8.3,7.8,8.3,8,8.3h0.5h0.6c0,0,0.1,0,0.2,0c0-0.1-0.1-0.2-0.2-0.2
		s-0.4,0-0.4,0S8.3,8,8.4,7.8c0-0.2,0.4-0.4,0.4-0.4s0.5-0.2,0.6-0.3C9.5,7.1,9.8,6.9,9.7,6.8L9.7,6.8z M7.1,7.4
		C7,7.6,7,7.7,6.9,7.7L5.7,9.3c0,0-0.1-0.2,0.2-0.6s0.6-1.2,0.6-1.2s0.2-0.2,0.3-0.2s0.4-0.1,0.4-0.1s0.1,0,0.2,0
		C7.4,7.1,7.2,7.2,7.1,7.4z"/>
</g>
</svg>
