<svg fill="#000000" xmlns="http://www.w3.org/2000/svg"  viewBox="0 0 24 24" width="24px" height="24px"><path d="M 7.5 6 C 6.671875 6 6 6.671875 6 7.5 C 6 8.328125 6.671875 9 7.5 9 C 8.328125 9 9 8.328125 9 7.5 C 9 6.671875 8.328125 6 7.5 6 Z M 6.1875 10 C 5.707031 9.988281 5.25 10.1875 5 10.625 C 5 10.625 3.507813 12.882813 3.15625 14 C 2.890625 14.84375 2.824219 15.671875 4 16 L 8.34375 15.75 L 13 17 L 13.5625 15.46875 C 13.5625 15.46875 9.304688 14.125 9 14 L 5 14 L 6.75 13.40625 L 7.6875 11.90625 L 9.40625 11.96875 L 12 12 L 12 10.5625 C 12 10.5625 10.882813 10.53125 10 10.53125 C 10 10.53125 7.359375 10.300781 6.6875 10.09375 C 6.527344 10.042969 6.347656 10.003906 6.1875 10 Z M 20 10 C 19.261719 10 18.628906 10.40625 18.28125 11 L 13 11 L 13 12 L 18 12 C 18 12.457031 18.148438 12.882813 18.40625 13.21875 L 16.625 18 L 9 18 L 9 17 L 2 17 L 2 19 L 7 19 L 7 20 L 18 20 L 20.25 13.96875 C 21.230469 13.839844 22 13.015625 22 12 C 22 10.894531 21.105469 10 20 10 Z"/></svg>